<svg width="56" height="56" viewBox="0 0 56 56" fill="none" xmlns="http://www.w3.org/2000/svg">
<g clip-path="url(#clip0_332_85)">
<path d="M0 9C0 4.03 4.03 0 9 0H47C51.97 0 56 4.03 56 9V47C56 51.97 51.97 56 47 56H9C4.03 56 0 51.97 0 47V9Z" fill="url(#paint0_linear_332_85)"/>
<path fill-rule="evenodd" clip-rule="evenodd" d="M41.125 10.9373C38.7236 10.9373 36.75 12.8615 36.75 15.2029C36.75 15.9339 36.9446 16.6249 37.2822 17.2286L35.0142 19.4376C33.0885 17.9343 30.6503 17.0311 28 17.031C25.3498 17.0311 22.9116 17.9343 20.9859 19.4376L18.7251 17.2334C19.421 15.9698 19.4576 14.3913 18.6739 13.0677C17.4716 11.0375 14.7723 10.3317 12.69 11.5038C10.6077 12.676 9.88621 15.3079 11.0884 17.3381C12.2697 19.3329 14.8935 20.0466 16.96 18.9592L19.2183 21.161C17.6765 23.0386 16.75 25.4158 16.75 27.9998C16.75 30.5838 17.6765 32.961 19.2183 34.8386L16.9527 37.05L16.9502 37.0502C16.3309 36.721 15.6247 36.5312 14.875 36.5312C12.4736 36.5312 10.5 38.4555 10.5 40.7969C10.5 43.1383 12.4736 45.0625 14.875 45.0625C17.2764 45.0625 19.25 43.1383 19.25 40.7969C19.25 40.0659 19.0554 39.375 18.7178 38.7712L20.9565 36.5908C21.1016 36.7495 21.2868 36.8685 21.4937 36.9359C23.3327 38.2132 25.5775 38.9688 28 38.9688C30.5062 38.9687 32.8237 38.1637 34.6968 36.805C34.8053 36.7451 34.9041 36.6697 34.9897 36.5812C34.9972 36.5751 35.0057 36.5681 35.014 36.562L37.2821 38.7733C36.9444 39.3771 36.7498 40.0657 36.7498 40.7967C36.7498 43.1381 38.7234 45.0623 41.1248 45.0623C43.5263 45.0623 45.4998 43.1381 45.4998 40.7967C45.4998 38.4552 43.5263 36.531 41.1248 36.531C40.3752 36.531 39.6689 36.7207 39.0497 37.05L39.0472 37.0501L36.7815 34.8388C38.3234 32.9612 39.2498 30.584 39.2498 28C39.2498 25.416 38.3234 23.0387 36.7815 21.1612L39.0496 18.9498C39.6689 19.279 40.3751 19.4687 41.1248 19.4687C43.5262 19.4687 45.4998 17.5445 45.4998 15.2031C45.4998 12.8617 43.5265 10.9373 41.125 10.9373ZM14.8335 13.3653C15.4988 13.3453 16.1462 13.675 16.5083 14.2865C17.035 15.1759 16.7321 16.2771 15.8198 16.7906C14.9076 17.3041 13.7806 17.0088 13.2539 16.1194C12.7273 15.23 13.0277 14.1287 13.94 13.6152C14.225 13.4547 14.5311 13.3744 14.8335 13.3653ZM41.125 13.3748C42.1754 13.3748 43 14.1788 43 15.2029C43 16.227 42.1754 17.031 41.125 17.031C40.0747 17.031 39.25 16.227 39.25 15.2029C39.25 14.1788 40.0747 13.3748 41.125 13.3748ZM28 19.4685C32.8473 19.4685 36.75 23.2737 36.75 27.9998C36.75 30.1629 35.9311 32.131 34.5796 33.6318C33.8171 32.2777 32.6279 31.1838 31.1909 30.523C32.2937 29.6263 33 28.2796 33 26.781C33 24.1031 30.7466 21.906 28 21.906C25.2534 21.906 23 24.1031 23 26.781C23 28.2796 23.7063 29.6263 24.8091 30.523C23.3724 31.1841 22.1828 32.2775 21.4204 33.6318C20.069 32.1311 19.25 30.1629 19.25 27.9998C19.25 23.2737 23.1527 19.4686 28 19.4685ZM28 24.3435C29.3955 24.3435 30.5 25.4204 30.5 26.781C30.5 28.1417 29.3955 29.2185 28 29.2185C26.6045 29.2185 25.5 28.1417 25.5 26.781C25.5 25.4204 26.6045 24.3435 28 24.3435ZM28 32.2654C30.0885 32.2654 31.8617 33.5016 32.6143 35.2575C31.2762 36.0658 29.6962 36.531 28 36.531C26.3039 36.531 24.7238 36.0658 23.3858 35.2575C24.1383 33.5017 25.9119 32.2654 28 32.2654ZM14.875 38.9686C15.9254 38.9685 16.75 39.7726 16.75 40.7967C16.75 41.8207 15.9254 42.6248 14.875 42.6248C13.8247 42.6248 13 41.8207 13 40.7967C13 39.7726 13.8247 38.9685 14.875 38.9686ZM41.125 38.9686C42.1754 38.9685 43 39.7726 43 40.7967C43 41.8207 42.1754 42.6248 41.125 42.6248C40.0747 42.6248 39.25 41.8207 39.25 40.7967C39.25 39.7726 40.0747 38.9685 41.125 38.9686Z" fill="white"/>
</g>
<defs>
<linearGradient id="paint0_linear_332_85" x1="2.47573" y1="-1.75541e-06" x2="56" y2="44.4654" gradientUnits="userSpaceOnUse">
<stop stop-color="#4D4BE5"/>
<stop offset="1" stop-color="#0AAFD5"/>
</linearGradient>
<clipPath id="clip0_332_85">
<rect width="56" height="56" fill="white"/>
</clipPath>
</defs>
</svg>
