<svg width="56" height="56" viewBox="0 0 56 56" fill="none" xmlns="http://www.w3.org/2000/svg">
<g clip-path="url(#clip0_331_38)">
<path d="M0 9C0 4.03 4.03 0 9 0H47C51.97 0 56 4.03 56 9V47C56 51.97 51.97 56 47 56H9C4.03 56 0 51.97 0 47V9Z" fill="url(#paint0_linear_331_38)"/>
<path d="M14.25 18C14.25 15.93 15.93 14.25 18 14.25H32.17C34.24 14.25 35.92 15.93 35.92 18V30.92H41.76V36.34C41.76 39.33 39.33 41.76 36.34 41.76H19.67C16.68 41.76 14.25 39.33 14.25 36.34V18ZM35.92 33.42V39.26H36.34C37.95 39.26 39.26 37.95 39.26 36.34V33.42H35.93H35.92ZM33.42 39.25V17.99C33.42 17.3 32.86 16.74 32.17 16.74H18C17.31 16.74 16.75 17.3 16.75 17.99V36.33C16.75 37.94 18.06 39.25 19.67 39.25H33.42ZM19.25 22.16C19.25 21.47 19.81 20.91 20.5 20.91H29.67C30.36 20.91 30.92 21.47 30.92 22.16C30.92 22.85 30.36 23.41 29.67 23.41H20.5C19.81 23.41 19.25 22.85 19.25 22.16ZM19.25 28C19.25 27.31 19.81 26.75 20.5 26.75H29.67C30.36 26.75 30.92 27.31 30.92 28C30.92 28.69 30.36 29.25 29.67 29.25H20.5C19.81 29.25 19.25 28.69 19.25 28ZM19.25 33.84C19.25 33.15 19.81 32.59 20.5 32.59H24.67C25.36 32.59 25.92 33.15 25.92 33.84C25.92 34.53 25.36 35.09 24.67 35.09H20.5C19.81 35.09 19.25 34.53 19.25 33.84Z" fill="white"/>
</g>
<defs>
<linearGradient id="paint0_linear_331_38" x1="2.47573" y1="-1.75541e-06" x2="56" y2="44.4654" gradientUnits="userSpaceOnUse">
<stop stop-color="#4D4BE5"/>
<stop offset="1" stop-color="#0AAFD5"/>
</linearGradient>
<clipPath id="clip0_331_38">
<rect width="56" height="56" fill="white"/>
</clipPath>
</defs>
</svg>
