<svg width="56" height="56" viewBox="0 0 56 56" fill="none" xmlns="http://www.w3.org/2000/svg">
<g clip-path="url(#clip0_334_6)">
<path d="M0 9C0 4.03 4.03 0 9 0H47C51.97 0 56 4.03 56 9V47C56 51.97 51.97 56 47 56H9C4.03 56 0 51.97 0 47V9Z" fill="url(#paint0_linear_334_6)"/>
<path fill-rule="evenodd" clip-rule="evenodd" d="M44.9584 15.3335C44.9584 12.7102 42.8878 10.5835 40.3334 10.5835H15.6667C13.1124 10.5835 11.0417 12.7102 11.0417 15.3335V40.6668C11.0417 43.2903 13.1124 45.4168 15.6667 45.4168H40.3334C42.8878 45.4168 44.9584 43.2903 44.9584 40.6668V15.3335ZM41.8751 15.3335C41.8751 14.4591 41.1849 13.7502 40.3334 13.7502H15.6667C14.8153 13.7502 14.1251 14.4591 14.1251 15.3335V40.6668C14.1251 41.5413 14.8153 42.2502 15.6667 42.2502H40.3334C41.1849 42.2502 41.8751 41.5413 41.8751 40.6668V15.3335Z" fill="white"/>
<path d="M34.1666 21.6668C34.1666 25.1646 31.4056 28.0002 27.9999 28.0002C24.5942 28.0002 21.8333 25.1646 21.8333 21.6668C21.8333 18.169 24.5942 15.3335 27.9999 15.3335C31.4056 15.3335 34.1666 18.169 34.1666 21.6668ZM24.8814 21.6668C24.8814 23.4357 26.2776 24.8696 27.9999 24.8696C29.7223 24.8696 31.1184 23.4357 31.1184 21.6668C31.1184 19.8979 29.7223 18.464 27.9999 18.464C26.2776 18.464 24.8814 19.8979 24.8814 21.6668Z" fill="white"/>
<path fill-rule="evenodd" clip-rule="evenodd" d="M17.8237 35.4114C19.5057 30.8954 24.1014 29.5835 28.0001 29.5835C31.8988 29.5835 36.4945 30.8954 38.1765 35.4114C38.7154 36.8586 38.3024 38.2532 37.4602 39.2067C36.6493 40.1247 35.4332 40.6668 34.1667 40.6668H21.8334C20.5669 40.6668 19.3509 40.1247 18.54 39.2067C17.6977 38.2532 17.2847 36.8586 17.8237 35.4114ZM28.0001 32.7502C24.4904 32.7502 21.6778 33.9271 20.7035 36.5429C20.6282 36.7449 20.685 36.9221 20.8236 37.079C21.0239 37.3057 21.397 37.5002 21.8334 37.5002H34.1667C34.6032 37.5002 34.9763 37.3057 35.1765 37.079C35.3151 36.9221 35.3719 36.7449 35.2966 36.5429C34.3225 33.9271 31.5097 32.7502 28.0001 32.7502Z" fill="white"/>
</g>
<defs>
<linearGradient id="paint0_linear_334_6" x1="2.47573" y1="-1.75541e-06" x2="56" y2="44.4654" gradientUnits="userSpaceOnUse">
<stop stop-color="#4D4BE5"/>
<stop offset="1" stop-color="#0AAFD5"/>
</linearGradient>
<clipPath id="clip0_334_6">
<rect width="56" height="56" fill="white"/>
</clipPath>
</defs>
</svg>
