<svg width="56" height="56" viewBox="0 0 56 56" fill="none" xmlns="http://www.w3.org/2000/svg">
<g clip-path="url(#clip0_331_42)">
<path d="M0 9C0 4.03 4.03 0 9 0H47C51.97 0 56 4.03 56 9V47C56 51.97 51.97 56 47 56H9C4.03 56 0 51.97 0 47V9Z" fill="url(#paint0_linear_331_42)"/>
<path d="M24.67 14.7201C26.7 13.4201 29.3 13.4201 31.32 14.7201L44.1501 22.9401C44.4901 23.1601 44.7001 23.5301 44.7001 23.9401C44.7001 24.3401 44.5 24.7201 44.16 24.9401L39.1301 28.2201V37.0601C39.1301 37.3201 39.05 37.5701 38.89 37.7801L38.8801 37.8001C38.8801 37.8001 38.8601 37.8201 38.8601 37.8301C38.8601 37.8301 38.85 37.8401 38.84 37.8501C38.81 37.8901 38.76 37.9501 38.7001 38.0101C38.58 38.1401 38.42 38.3201 38.2001 38.5401C37.76 38.9601 37.1 39.5201 36.21 40.0601C34.42 41.1601 31.72 42.2301 28 42.2301C24.28 42.2301 21.58 41.1601 19.79 40.0601C18.9 39.5101 18.24 38.9601 17.8 38.5401C17.58 38.3301 17.41 38.1501 17.3 38.0101C17.23 37.9301 17.17 37.8501 17.1 37.7701C16.95 37.5601 16.86 37.3101 16.86 37.0501V28.2101L13.68 26.1301V34.6601C13.68 35.3201 13.15 35.8501 12.49 35.8501C11.83 35.8501 11.3 35.3201 11.3 34.6601V23.9201C11.3 23.4901 11.53 23.1101 11.87 22.9001L24.68 14.6901L24.67 14.7201ZM31.37 33.3101C29.32 34.6501 26.67 34.6501 24.63 33.3101L19.25 29.8001V36.6401C19.31 36.7001 19.38 36.7701 19.46 36.8501C19.8 37.1701 20.32 37.6101 21.05 38.0601C22.5 38.9501 24.77 39.8701 28.01 39.8701C31.25 39.8701 33.5201 38.9501 34.9701 38.0601C35.7001 37.6101 36.2201 37.1701 36.5601 36.8501C36.6401 36.7701 36.7101 36.7001 36.7701 36.6401V29.8001L31.39 33.3101H31.37ZM30.0401 16.7301C28.8001 15.9301 27.2 15.9301 25.96 16.7301L14.68 23.9601L25.93 31.3101C27.19 32.1301 28.81 32.1301 30.06 31.3101L41.3101 23.9601L30.03 16.7301H30.0401Z" fill="white"/>
</g>
<defs>
<linearGradient id="paint0_linear_331_42" x1="2.47573" y1="-1.75541e-06" x2="56" y2="44.4654" gradientUnits="userSpaceOnUse">
<stop stop-color="#4D4BE5"/>
<stop offset="1" stop-color="#0AAFD5"/>
</linearGradient>
<clipPath id="clip0_331_42">
<rect width="56" height="56" fill="white"/>
</clipPath>
</defs>
</svg>
