<svg width="56" height="56" viewBox="0 0 56 56" fill="none" xmlns="http://www.w3.org/2000/svg">
<g clip-path="url(#clip0_331_46)">
<path d="M0 9C0 4.03 4.03 0 9 0H47C51.97 0 56 4.03 56 9V47C56 51.97 51.97 56 47 56H9C4.03 56 0 51.97 0 47V9Z" fill="url(#paint0_linear_331_46)"/>
<path d="M19.1301 24.8901H16.1601C15.2985 24.8901 14.6001 25.5886 14.6001 26.4501V41.6101C14.6001 42.4717 15.2985 43.1701 16.1601 43.1701H19.1301C19.9917 43.1701 20.6901 42.4717 20.6901 41.6101V26.4501C20.6901 25.5886 19.9917 24.8901 19.1301 24.8901Z" fill="white"/>
<path d="M29.4799 18.8599H26.51C25.6484 18.8599 24.95 19.5583 24.95 20.4199V38.2599C24.95 39.1214 25.6484 39.8199 26.51 39.8199H29.4799C30.3415 39.8199 31.04 39.1214 31.04 38.2599V20.4199C31.04 19.5583 30.3415 18.8599 29.4799 18.8599Z" fill="white"/>
<path d="M39.8401 12.8301H36.8701C36.0085 12.8301 35.3101 13.5285 35.3101 14.3901V33.5801C35.3101 34.4416 36.0085 35.1401 36.8701 35.1401H39.8401C40.7016 35.1401 41.4001 34.4416 41.4001 33.5801V14.3901C41.4001 13.5285 40.7016 12.8301 39.8401 12.8301Z" fill="white"/>
</g>
<defs>
<linearGradient id="paint0_linear_331_46" x1="2.47573" y1="-1.75541e-06" x2="56" y2="44.4654" gradientUnits="userSpaceOnUse">
<stop stop-color="#4D4BE5"/>
<stop offset="1" stop-color="#0AAFD5"/>
</linearGradient>
<clipPath id="clip0_331_46">
<rect width="56" height="56" fill="white"/>
</clipPath>
</defs>
</svg>
