<svg width="56" height="56" viewBox="0 0 56 56" fill="none" xmlns="http://www.w3.org/2000/svg">
<g clip-path="url(#clip0_331_58)">
<path d="M0 9C0 4.03 4.03 0 9 0H47C51.97 0 56 4.03 56 9V47C56 51.97 51.97 56 47 56H9C4.03 56 0 51.97 0 47V9Z" fill="url(#paint0_linear_331_58)"/>
<path fill-rule="evenodd" clip-rule="evenodd" d="M44.4301 19.3701C44.2201 16.2201 38.1901 13.8501 30.3901 13.8501C22.5901 13.8501 16.5801 16.2201 16.3501 19.3401C16.3501 19.4101 16.3501 19.4701 16.3501 19.5401V25.7601C13.3801 26.7901 11.7001 28.2501 11.5801 29.8701C11.5801 29.9401 11.5801 30.0101 11.5801 30.0901V36.4701C11.5801 36.5301 11.5801 36.6001 11.5801 36.6601C11.7101 38.3801 13.5401 39.8901 16.7201 40.9001H16.7501C19.6301 41.7601 22.6201 42.1801 25.6201 42.1501C33.3901 42.1501 39.4301 39.7901 39.6601 36.6501V30.2401C42.6301 29.2101 44.3201 27.7501 44.4401 26.1301V26.1001C44.4401 26.1001 44.4401 26.0701 44.4401 26.0501V19.3601L44.4301 19.3701ZM17.4801 19.4301C17.6201 17.2801 22.8401 14.9501 30.3901 14.9501C37.9401 14.9501 43.1601 17.2601 43.3001 19.4301C43.3001 19.4501 43.3001 19.4701 43.3001 19.4901C43.3001 20.4201 42.3601 21.3801 40.6601 22.1701C38.1501 23.3601 34.4101 24.0401 30.3801 24.0401C26.3501 24.0401 22.6101 23.3601 20.1001 22.1701C18.4001 21.3701 17.4601 20.4201 17.4601 19.4901C17.4601 19.5001 17.4601 19.4801 17.4601 19.4301H17.4801ZM16.5401 26.9401C16.5401 26.9401 16.5401 26.9101 16.5401 26.9001C14.2001 27.7401 12.8001 28.8701 12.7001 29.9801V30.0701C12.7001 30.1501 12.7201 30.2301 12.7401 30.3101C12.8501 30.9801 13.4401 31.6301 14.4101 32.2001C14.7101 32.3901 15.0301 32.5601 15.3501 32.7101C15.7801 32.9101 16.2301 33.0901 16.6801 33.2401C19.1001 34.0901 22.2801 34.5701 25.6401 34.5701H26.2201C26.4401 34.5701 26.6501 34.5601 26.8501 34.5501C27.0701 34.5501 27.2801 34.5301 27.4801 34.5301L28.1501 34.4901C28.5001 34.4601 28.8601 34.4301 29.2101 34.3901H29.4101L29.6501 34.3601H29.7301C29.9501 34.3301 30.1701 34.3001 30.4001 34.2701L30.6201 34.2401H30.6901C30.8201 34.2201 30.9401 34.2001 31.0701 34.1701C31.2101 34.1401 31.3501 34.1201 31.5001 34.0901C31.7901 34.0501 32.0601 33.9901 32.3201 33.9301H32.3501L32.6701 33.8601L32.8001 33.8301L33.1701 33.7401L33.3301 33.7001L33.7001 33.5901L33.7601 33.5001C34.1001 33.4001 34.4101 33.2901 34.7301 33.1801L34.8801 33.1301C34.9401 33.1101 34.9901 33.0801 35.0501 33.0601C35.0501 33.0601 35.1401 33.0201 35.1901 33.0001C35.2401 32.9801 35.3001 32.9601 35.3601 32.9301C35.5601 32.8501 35.7601 32.7701 35.9001 32.7001L35.9801 32.6601C36.1401 32.5801 36.3001 32.5001 36.4601 32.4101L36.6201 32.3201C36.7401 32.2601 36.8401 32.1901 36.9501 32.1201L37.1301 32.0001L37.3801 31.8101L37.5401 31.6901C37.6301 31.6201 37.7101 31.5501 37.7901 31.4701L37.8801 31.3901C37.9701 31.2901 38.0601 31.1901 38.1401 31.0901C38.1701 31.0501 38.1901 31.0101 38.2101 30.9701C38.2601 30.9001 38.3001 30.8401 38.3401 30.7601C38.3401 30.7501 38.3501 30.7301 38.3601 30.7201C38.3801 30.6901 38.3901 30.6701 38.3901 30.6401C38.4001 30.6101 38.4101 30.5801 38.4201 30.5501H38.3701L37.9601 30.6501C37.7801 30.7001 37.5901 30.7501 37.4001 30.7901L36.9601 30.8901C36.8901 30.9001 36.8201 30.9201 36.7501 30.9301C36.6301 30.9501 36.5201 30.9801 36.4001 31.0001L35.9301 31.0801L35.7801 31.1001C35.6201 31.1301 35.4601 31.1501 35.3401 31.1701C35.2501 31.1901 35.1701 31.2001 35.0801 31.2101C35.0201 31.2101 34.9501 31.2301 34.8601 31.2401C34.7201 31.2601 34.5701 31.2801 34.4301 31.3001C34.3701 31.3001 34.3001 31.3201 34.2401 31.3201L33.7701 31.3701L33.1001 31.4301L32.6501 31.4601H32.5701C32.3501 31.4801 32.1301 31.4901 31.9101 31.4901H29.0501C28.6601 31.4801 28.2801 31.4501 27.9101 31.4301H27.7501C27.3901 31.4001 27.0301 31.3701 26.6801 31.3301H26.5001C26.1501 31.2901 25.8101 31.2501 25.4801 31.2001L25.3101 31.1701C24.9701 31.1201 24.6401 31.0601 24.3201 31.0001L24.1801 30.9701C23.8501 30.9101 23.5301 30.8401 23.2101 30.7601H23.1301C22.8101 30.6801 22.5001 30.6001 22.1901 30.5101H22.1601C21.8601 30.4201 21.5701 30.3301 21.2801 30.2301L21.1901 30.2001C20.9201 30.1101 20.6601 30.0101 20.4101 29.9101L20.3001 29.8601C20.0501 29.7601 19.8201 29.6501 19.6001 29.5501L19.4901 29.5001C19.2701 29.3901 19.0601 29.2801 18.8601 29.1601L18.7601 29.1001C18.6901 29.0501 18.6201 29.0101 18.5501 28.9601C18.4301 28.8801 18.3101 28.8001 18.2001 28.7201L18.1301 28.6701C17.9501 28.5401 17.7801 28.4001 17.6301 28.2701L17.6001 28.2401C17.4501 28.1001 17.3101 27.9601 17.1701 27.8101C17.0501 27.6701 16.9401 27.5201 16.8401 27.3601L16.8101 27.3101C16.7201 27.1701 16.6501 27.0201 16.5801 26.8601L16.5401 26.9401ZM25.6201 41.0301C22.7401 41.0701 19.8701 40.6601 17.1001 39.8401H17.0701C14.4301 39.0001 12.8001 37.7801 12.7101 36.5801C12.7101 36.5501 12.7101 36.5201 12.7101 36.4901V32.3901L12.8301 32.4901L12.9801 32.6201C13.1001 32.7201 13.2301 32.8201 13.3501 32.9101L13.5301 33.0301C13.6701 33.1301 13.8201 33.2201 13.9901 33.3101L14.1701 33.4201C14.3801 33.5401 14.5901 33.6501 14.8201 33.7601L14.8801 33.7901C15.0601 33.8801 15.2601 33.9601 15.4601 34.0301L15.5701 34.0701C18.1801 35.1401 21.8001 35.7501 25.6501 35.7501H27.4101C27.6701 35.7501 27.9301 35.7301 28.1801 35.7101H28.2701C28.6701 35.6701 29.1201 35.6301 29.5301 35.5801L29.7801 35.5501H29.8501L30.5301 35.4501L30.8001 35.4101H30.8201C31.1101 35.3701 31.4001 35.3201 31.7001 35.2601C31.8201 35.2401 31.9301 35.2201 32.0401 35.2001C32.2101 35.1701 32.3701 35.1401 32.5201 35.1001L32.6101 35.0801H32.6601C32.9101 35.0301 33.1401 34.9701 33.3601 34.9101L33.4701 34.8801C33.7101 34.8201 33.9401 34.7501 34.1601 34.6901C34.5701 34.5701 34.9701 34.4301 35.3501 34.2901C35.4501 34.2501 35.5501 34.2101 35.6401 34.1701C35.7001 34.1401 35.7701 34.1201 35.8301 34.0901L35.9401 34.0501C36.0901 33.9901 36.2801 33.9101 36.4401 33.8401L36.5001 33.8101C36.7301 33.7001 36.9501 33.5901 37.1501 33.4701L37.3301 33.3701L37.4001 33.3301C37.5301 33.2501 37.6601 33.1701 37.7901 33.0801L37.9601 32.9601C38.0901 32.8601 38.2201 32.7701 38.3301 32.6701L38.4801 32.5401C38.4801 32.5401 38.5201 32.5101 38.5401 32.4901C38.5601 32.4701 38.5801 32.4601 38.6001 32.4401V36.5501C38.4301 38.7101 33.2101 41.0201 25.6601 41.0201L25.6201 41.0301ZM30.3801 30.4901C33.2701 30.5201 36.1401 30.1201 38.9101 29.2901C41.5701 28.4401 43.2101 27.2201 43.3201 26.0201V21.8501C43.3201 21.8501 43.2901 21.8701 43.2801 21.8901C43.2601 21.9101 43.2401 21.9201 43.2201 21.9401L43.0401 22.1001C42.9301 22.1901 42.8201 22.2801 42.7001 22.3601L42.4901 22.5101C42.3601 22.6001 42.2201 22.6901 42.0701 22.7801C42.0401 22.7901 42.0201 22.8101 42.0001 22.8201C41.9601 22.8501 41.9101 22.8701 41.8701 22.9001C41.6501 23.0401 41.4101 23.1601 41.1701 23.2701C38.5201 24.5301 34.6001 25.2501 30.4101 25.2501C26.2201 25.2501 22.3001 24.5301 19.6501 23.2701C19.4001 23.1401 19.1701 23.0201 18.9501 22.9001C18.8901 22.8701 18.8401 22.8401 18.7901 22.8101C18.7801 22.8101 18.7601 22.7901 18.7501 22.7801C18.6001 22.6901 18.4601 22.6001 18.3301 22.5101L18.1201 22.3601C18.0401 22.3001 17.9401 22.2201 17.8701 22.1601C17.8301 22.1301 17.8001 22.1101 17.7801 22.0901C17.7201 22.0401 17.6601 22.0001 17.6101 21.9501C17.6101 21.9501 17.6101 21.9501 17.6001 21.9501L17.5001 21.8601V26.0101C17.5001 26.0101 17.5001 26.0601 17.5001 26.0801C17.5001 26.0901 17.5001 26.1001 17.5001 26.1101C17.5201 26.2401 17.5501 26.3601 17.6001 26.4801C18.4301 28.5101 23.4701 30.5001 30.4001 30.5001L30.3801 30.4901Z" fill="white"/>
<path d="M44.4299 19.3702H44.8199V19.3402L44.4299 19.3702ZM16.3499 19.5402H16.7399V19.5202L16.3499 19.5402ZM16.3499 25.7602L16.4799 26.1302L16.7399 26.0402V25.7602H16.3499ZM11.5699 30.0802H11.9599V30.0602L11.5699 30.0802ZM11.5699 36.4702L11.9599 36.4902V36.4702H11.5699ZM16.7099 40.9002L16.5899 41.2702L16.6499 41.2902H16.7099V40.9002ZM16.7399 40.9002L16.8499 40.5302L16.7999 40.5102H16.7399V40.9002ZM39.6499 36.6502L40.0399 36.6802V36.6502H39.6499ZM39.6499 30.2402L39.5199 29.8702L39.2599 29.9602V30.2402H39.6499ZM44.4299 26.1302L44.8199 26.1602V26.1302H44.4299ZM44.4299 26.1002L44.0399 26.0602V26.0802V26.1002H44.4299ZM44.4299 26.0502H44.0399V26.0902L44.4299 26.0502ZM17.4799 19.4302V19.8202H17.8399L17.8599 19.4602L17.4699 19.4302H17.4799ZM43.2999 19.5002L42.9099 19.4702V19.4902V19.5102H43.2999V19.5002ZM17.4699 19.5002H17.8599L17.0999 19.3802L17.4699 19.5002ZM17.4699 19.4302V19.0402H17.1099L17.0799 19.4002L17.4699 19.4302ZM16.5399 26.9002L16.9299 26.9402L16.9699 26.5102H16.5399V26.9002ZM16.5399 26.9402L16.1499 26.9802V27.0402L16.1799 27.0902L16.5399 26.9402ZM16.5299 26.9002V26.5102H16.4599L16.3999 26.5302L16.5299 26.9002ZM12.6899 29.9802L12.2999 29.9502V29.9702V29.9902H12.6899V29.9802ZM12.6899 30.0802H12.2999V30.1202L12.6899 30.0802ZM12.7399 30.3202L13.1199 30.2602V30.2402V30.2202L12.7499 30.3202H12.7399ZM14.4099 32.2102L14.6199 31.8802L14.4199 32.2102H14.4099ZM15.3399 32.7202L15.1699 33.0702L15.3299 32.7202H15.3399ZM26.8399 34.5702V34.1802H26.8199L26.8399 34.5702ZM26.8399 34.5702V34.9602H26.8599L26.8399 34.5702ZM27.4699 34.5502V34.9402H27.4899L27.4699 34.5502ZM28.1399 34.5102L28.1599 34.9002L28.1299 34.5102H28.1399ZM29.1999 34.4102V34.0202H29.1599L29.1999 34.4102ZM29.3899 34.4102V34.8002H29.4399L29.3899 34.4102ZM29.6299 34.3802V33.9902H29.5799L29.6299 34.3802ZM29.7099 34.3802V34.7702H29.7599L29.7099 34.3802ZM30.5999 34.2502V33.8602H30.5399L30.5999 34.2502ZM30.6699 34.2502V34.6402H30.7299L30.6699 34.2502ZM32.2999 33.9402V33.5502H32.2099L32.2999 33.9402ZM32.3299 33.9402V34.3302H32.4099L32.3299 33.9402ZM32.6499 33.8802L32.7299 34.2602L32.6399 33.8802H32.6499ZM33.1499 33.7502L33.2399 34.1302H33.2499L33.1399 33.7502H33.1499ZM33.6799 33.6002L33.7899 33.9702L33.9199 33.9302L33.9999 33.8202L33.6799 33.6002ZM33.7399 33.5102L33.6299 33.1402L33.4999 33.1802L33.4199 33.2902L33.7399 33.5102ZM34.7099 33.1902L34.5899 32.8202L34.7199 33.1902H34.7099ZM34.7099 33.1902L34.8299 33.5602L34.6999 33.1902H34.7099ZM34.8599 33.1402L34.9899 33.5102L34.8499 33.1402H34.8599ZM35.0199 33.0702L35.1699 33.4302H35.1799L35.0099 33.0802L35.0199 33.0702ZM35.0199 33.0702L34.8699 32.7102H34.8499L35.0199 33.0702ZM35.1599 33.0102L35.2999 33.3702L35.1499 33.0102H35.1599ZM37.0799 32.0302L37.2899 32.3602H37.3099L37.0799 32.0302ZM37.3299 31.8502L37.5599 32.1602L37.3199 31.8502H37.3299ZM37.7299 31.5002L37.4699 31.2102H37.4599L37.4499 31.2302L37.7299 31.5002ZM37.8299 31.4202L38.0899 31.7102H38.0999L38.1099 31.6902L37.8299 31.4202ZM38.1599 31.0002L37.8399 30.7702V30.7902L37.8099 30.8102L38.1499 31.0002H38.1599ZM38.2899 30.7902L38.6299 30.9802V30.9502L38.2799 30.7902H38.2899ZM38.3499 30.6702L37.9899 30.5102L37.9599 30.5802V30.6602H38.3499V30.6702ZM38.3799 30.5802L38.7499 30.7002L38.9099 30.1902H38.3799V30.5802ZM38.3299 30.5802V30.1902H38.2399L38.3299 30.5802ZM37.9199 30.6802L37.8299 30.3002L37.9299 30.6802H37.9199ZM36.9199 30.9202L36.9899 31.3002L36.9099 30.9202H36.9199ZM35.8899 31.1102L35.9499 31.4902L35.8799 31.1102H35.8899ZM35.0399 31.2402L35.0799 31.6302L35.0299 31.2402H35.0399ZM35.0399 31.2402L34.9999 30.8502H34.9899L35.0499 31.2402H35.0399ZM34.2099 31.3502L34.2499 31.7402L34.1999 31.3502H34.2099ZM33.7399 31.4002L33.7699 31.7902L33.7299 31.4002H33.7399ZM32.5399 31.5002L32.5599 31.8902L32.5299 31.5002H32.5399ZM32.5399 31.5002V31.8902H32.5599L32.5399 31.5002ZM32.5399 31.5002V31.1102H32.5099L32.5399 31.5002ZM27.8699 31.4702L27.8899 31.0802H27.8799H27.8699V31.4702ZM27.7099 31.4702L27.6799 31.8602H27.6899H27.6999V31.4702H27.7099ZM26.6399 31.3802L26.6799 30.9902H26.6599H26.6399V31.3802ZM26.4599 31.3802L26.4099 31.7702H26.4299H26.4499V31.3802H26.4599ZM23.1799 30.8202L23.2699 30.4402H23.2299L23.1799 30.4302V30.8202ZM23.0999 30.8202L23.0099 31.2002H23.0599L23.1099 31.2102V30.8202H23.0999ZM22.1599 30.5702L22.2699 30.2002H22.2199L22.1699 30.1902V30.5802L22.1599 30.5702ZM22.1299 30.5702L22.0199 30.9402H22.0699L22.1199 30.9502V30.5602L22.1299 30.5702ZM21.1599 30.2702L21.0299 30.6402L21.1499 30.2702H21.1599ZM19.5599 29.6102L19.7299 29.2602L19.5699 29.6102H19.5599ZM19.4499 29.5602L19.2699 29.9102H19.2799L19.4399 29.5602H19.4499ZM18.7199 29.1702L18.4999 29.4902H18.5099L18.5199 29.5002L18.7099 29.1602L18.7199 29.1702ZM18.1599 28.7902L17.9299 29.1102L18.1499 28.7902H18.1599ZM17.1299 27.8902L16.8299 28.1402L17.1199 27.8902H17.1299ZM16.7999 27.4402L17.1299 27.2302L16.8099 27.4402H16.7999ZM16.7699 27.3902L16.4399 27.5902V27.6102L16.7599 27.3902H16.7699ZM17.1099 39.8402L17.2199 39.4702L17.1699 39.4502H17.1099V39.8402ZM17.0699 39.8402L16.9499 40.2102L17.0099 40.2302H17.0699V39.8402ZM12.7199 36.5702L12.3299 36.5502V36.5702V36.5902L12.7199 36.5602V36.5702ZM12.7199 36.4802H12.3299V36.5002L12.7199 36.4802ZM12.7199 32.3802L12.9699 32.0802L12.3299 31.5402V32.3702H12.7199V32.3802ZM12.8299 32.4802L13.0899 32.1902L12.8399 32.4802H12.8299ZM12.9799 32.6102L12.7199 32.9002L12.9699 32.6102H12.9799ZM13.3499 32.9002L13.1099 33.2102H13.1199L13.3399 32.9002H13.3499ZM14.1599 33.4202L13.9599 33.7502H13.9699L14.1599 33.4202ZM14.8099 33.7602L14.9899 33.4202H14.9799L14.8099 33.7602ZM14.8699 33.7902L14.6899 34.1302H14.7099L14.8699 33.7902ZM15.4499 34.0302L15.5999 33.6702L15.4599 34.0302H15.4499ZM15.5499 34.0702L15.6999 33.7102L15.5599 34.0702H15.5499ZM28.1599 35.7202L28.1899 36.1102L28.1499 35.7202H28.1599ZM28.1699 35.7202L28.1399 35.3302L28.1799 35.7202H28.1699ZM29.5099 35.5902L29.4699 35.2002L29.5199 35.5902H29.5099ZM29.7699 35.5602V35.1702H29.7299L29.7699 35.5602ZM29.8399 35.5602V35.9502H29.8999L29.8399 35.5602ZM30.7899 35.4202V35.0302H30.7299L30.7899 35.4202ZM30.8099 35.4202V35.8102H30.8699L30.8099 35.4202ZM32.4999 35.1102L32.4199 34.7302L32.5099 35.1102H32.4999ZM32.5899 35.0902V34.7002H32.5099L32.5899 35.0902ZM32.6299 35.0902V35.4802H32.7099L32.6299 35.0902ZM33.3399 34.9202L33.2499 34.5402H33.2399L33.3399 34.9202ZM34.1299 34.7002L34.0199 34.3302L34.1399 34.7002H34.1299ZM35.3299 34.3002L35.4599 34.6602L35.3199 34.3002H35.3299ZM35.6199 34.1802L35.7699 34.5402L35.6099 34.1802H35.6199ZM35.6199 34.1802L35.4699 33.8202L35.6299 34.1802H35.6199ZM36.4099 33.8502L36.5699 34.2002H36.5799L36.3999 33.8602L36.4099 33.8502ZM36.4699 33.8202L36.3099 33.4702H36.2899L36.4699 33.8202ZM37.1199 33.4802L37.3099 33.8202L37.1099 33.4802H37.1199ZM37.7499 33.0902L37.9699 33.4102H37.9799L37.7499 33.0902ZM38.2999 32.6702L38.0499 32.3702L38.3099 32.6702H38.2999ZM38.4499 32.5402L38.6999 32.8402H38.7099L38.7199 32.8202L38.4399 32.5402H38.4499ZM38.5599 32.4502H38.9499V31.5102L38.2899 32.1702L38.5699 32.4502H38.5599ZM38.5599 36.5602L38.9499 36.5902V36.5702V36.5502H38.5599V36.5602ZM38.9099 29.2902L39.0199 29.6602L38.8999 29.2902H38.9099ZM43.3099 26.0102L43.6999 26.0502V26.0302V26.0102H43.3099ZM43.3099 21.8402H43.6999V20.9702L43.0499 21.5502L43.3099 21.8402ZM43.2099 21.9302L43.4599 22.2302H43.4699L43.4799 22.2102L43.1999 21.9302H43.2099ZM42.6999 22.3402L42.9199 22.6602L42.6899 22.3402H42.6999ZM42.0699 22.7602L42.2599 23.1002L42.0599 22.7602H42.0699ZM41.8599 22.8702L41.6799 22.5302H41.6699L41.6599 22.5402L41.8699 22.8702H41.8599ZM19.6299 23.2502L19.4499 23.6002L19.6199 23.2502H19.6299ZM18.9299 22.8702L19.1199 22.5302L18.9399 22.8702H18.9299ZM18.3099 22.4902L18.0799 22.8102L18.2999 22.4902H18.3099ZM18.0999 22.3402L17.8699 22.6602L18.0899 22.3402H18.0999ZM17.5799 21.9302L17.3199 22.2202L17.5699 21.9302H17.5799ZM17.4799 21.8402L17.7399 21.5502L17.0899 20.9702V21.8402H17.4799ZM17.4799 25.9902H17.0899V26.0202L17.4799 25.9902ZM17.4799 26.0602L17.0899 26.0302V26.0702V26.1102L17.4799 26.0602ZM17.4799 26.0902L17.0899 26.0402V26.0902V26.1402L17.4799 26.0902ZM30.3899 14.2402C34.2599 14.2402 37.6599 14.8302 40.1199 15.7902C41.3499 16.2702 42.3199 16.8402 42.9899 17.4602C43.6599 18.0802 44.0099 18.7302 44.0499 19.3902L44.8299 19.3402C44.7699 18.4302 44.2899 17.6002 43.5199 16.8902C42.7599 16.1802 41.6899 15.5702 40.4099 15.0602C37.8399 14.0502 34.3299 13.4502 30.3999 13.4502V14.2302L30.3899 14.2402ZM16.7399 19.3702C16.7899 18.7202 17.1399 18.0702 17.8099 17.4502C18.4799 16.8302 19.4499 16.2702 20.6799 15.7802C23.1299 14.8202 26.5299 14.2302 30.3999 14.2302V13.4502C26.4699 13.4502 22.9599 14.0502 20.3999 15.0502C19.1199 15.5502 18.0599 16.1602 17.2899 16.8702C16.5199 17.5802 16.0399 18.3902 15.9699 19.3002L16.7499 19.3602L16.7399 19.3702ZM16.7399 19.5202C16.7399 19.4702 16.7399 19.4202 16.7399 19.3602L15.9599 19.3202C15.9599 19.4002 15.9599 19.4802 15.9599 19.5602L16.7399 19.5202ZM16.7399 25.7602V19.5402H15.9599V25.7602H16.7399ZM11.9599 29.9002C12.0099 29.2202 12.3899 28.5402 13.1499 27.8902C13.9099 27.2402 15.0199 26.6402 16.4799 26.1302L16.2199 25.4002C14.7099 25.9202 13.4999 26.5702 12.6399 27.3002C11.7799 28.0402 11.2599 28.9002 11.1899 29.8402L11.9699 29.9002H11.9599ZM11.9599 30.0602C11.9599 30.0002 11.9599 29.9402 11.9599 29.8802L11.1799 29.8402C11.1799 29.9302 11.1799 30.0102 11.1799 30.1002L11.9599 30.0602ZM11.9599 36.4702V30.0902H11.1799V36.4702H11.9599ZM11.9599 36.6402C11.9599 36.6402 11.9599 36.5402 11.9599 36.4902L11.1799 36.4502C11.1799 36.5302 11.1799 36.6102 11.1799 36.6902L11.9599 36.6502V36.6402ZM16.8299 40.5302C15.2699 40.0302 14.0699 39.4202 13.2499 38.7502C12.4299 38.0802 12.0199 37.3602 11.9599 36.6302L11.1799 36.6902C11.2599 37.6902 11.8199 38.5902 12.7499 39.3502C13.6699 40.1102 14.9699 40.7602 16.5899 41.2702L16.8299 40.5302ZM16.7399 40.5102H16.7099V41.2902H16.7399V40.5102ZM25.6099 41.7602C22.6499 41.8002 19.6999 41.3802 16.8599 40.5302L16.6399 41.2702C19.5499 42.1402 22.5799 42.5702 25.6199 42.5302V41.7502L25.6099 41.7602ZM39.2599 36.6202C39.2099 37.2802 38.8599 37.9302 38.1899 38.5402C37.5199 39.1602 36.5499 39.7302 35.3199 40.2102C32.8699 41.1702 29.4599 41.7602 25.6099 41.7602V42.5402C29.5299 42.5402 33.0299 41.9402 35.5999 40.9402C36.8799 40.4402 37.9499 39.8302 38.7099 39.1202C39.4799 38.4102 39.9599 37.5902 40.0299 36.6802L39.2499 36.6202H39.2599ZM39.2599 36.6002V36.6502H40.0399V36.6002H39.2599ZM39.2599 36.4702V36.6002H40.0399V36.4702H39.2599ZM39.2599 30.2402V36.4702H40.0399V30.2402H39.2599ZM44.0399 26.1002C43.9899 26.7702 43.6099 27.4502 42.8499 28.1102C42.0899 28.7602 40.9799 29.3602 39.5199 29.8702L39.7799 30.6002C41.2899 30.0702 42.5099 29.4302 43.3599 28.6902C44.2199 27.9502 44.7399 27.1002 44.8199 26.1502L44.0399 26.0902V26.1002ZM44.0399 26.1002V26.1302H44.8199V26.1002H44.0399ZM44.0399 26.0902C44.0399 26.0902 44.0399 26.0702 44.0399 26.0602L44.8099 26.1402C44.8099 26.1402 44.8099 26.0502 44.8099 26.0102L44.0399 26.0902ZM44.0399 19.5302V26.0502H44.8199V19.5302H44.0399ZM44.0399 19.4102V19.5302H44.8199V19.4102H44.0399ZM44.0399 19.3702V19.4202H44.8199V19.3702H44.0399ZM30.3899 14.5602C26.5799 14.5602 23.3399 15.1502 21.0199 16.0202C19.8599 16.4502 18.9199 16.9702 18.2499 17.5202C17.5899 18.0702 17.1399 18.7102 17.0899 19.4002L17.8699 19.4502C17.8999 19.0602 18.1599 18.6002 18.7499 18.1102C19.3299 17.6302 20.1899 17.1502 21.2999 16.7402C23.5099 15.9102 26.6599 15.3302 30.3899 15.3302V14.5502V14.5602ZM43.6899 19.4102C43.6399 18.7102 43.1999 18.0702 42.5299 17.5202C41.8599 16.9602 40.9099 16.4502 39.7499 16.0202C37.4299 15.1502 34.1899 14.5702 30.3799 14.5702V15.3502C34.1199 15.3502 37.2599 15.9202 39.4799 16.7502C40.5899 17.1602 41.4499 17.6402 42.0299 18.1202C42.6199 18.6102 42.8799 19.0702 42.9099 19.4602L43.6899 19.4102ZM43.6899 19.5302C43.6899 19.5302 43.6899 19.4402 43.6899 19.4002L42.9199 19.4702L43.6899 19.5302ZM40.8299 22.5302C41.7099 22.1202 42.4099 21.6602 42.8999 21.1602C43.3899 20.6602 43.6899 20.1002 43.6899 19.4902H42.9099C42.9099 19.8202 42.7399 20.2002 42.3399 20.6102C41.9399 21.0202 41.3199 21.4302 40.4899 21.8202L40.8199 22.5202L40.8299 22.5302ZM30.3799 24.4402C34.4399 24.4402 38.2499 23.7602 40.8199 22.5402L40.4899 21.8402C38.0599 22.9902 34.3699 23.6702 30.3799 23.6702V24.4502V24.4402ZM19.9399 22.5302C22.5099 23.7502 26.3199 24.4302 30.3799 24.4302V23.6502C26.3899 23.6502 22.6999 22.9702 20.2699 21.8202L19.9399 22.5202V22.5302ZM17.0799 19.5002C17.0799 20.1002 17.3799 20.6702 17.8699 21.1702C18.3599 21.6702 19.0599 22.1302 19.9399 22.5402L20.2699 21.8402C19.4499 21.4502 18.8299 21.0402 18.4299 20.6302C18.0299 20.2202 17.8599 19.8402 17.8599 19.5102H17.0799V19.5002ZM17.0799 19.4102C17.0799 19.4102 17.0799 19.4702 17.0799 19.4902C17.0799 19.4902 17.0799 19.5102 17.0799 19.5202C17.0799 19.5202 17.0799 19.5702 17.0999 19.6202C17.0999 19.6402 17.1199 19.6702 17.1399 19.7002C17.1599 19.7302 17.1999 19.7902 17.2799 19.8302C17.3699 19.8802 17.4799 19.8902 17.5799 19.8602C17.6599 19.8302 17.7199 19.7902 17.7399 19.7602C17.7899 19.7102 17.8099 19.6602 17.8199 19.6502C17.8199 19.6302 17.8299 19.6202 17.8399 19.6102L17.0999 19.3602C17.0999 19.3602 17.0999 19.3402 17.1199 19.3202C17.1199 19.3202 17.1499 19.2602 17.1899 19.2102C17.2099 19.1802 17.2699 19.1402 17.3499 19.1102C17.4499 19.0802 17.5599 19.0902 17.6499 19.1402C17.7299 19.1802 17.7699 19.2402 17.7899 19.2702C17.8099 19.3002 17.8199 19.3302 17.8299 19.3502C17.8399 19.3802 17.8499 19.4102 17.8499 19.4202C17.8499 19.4302 17.8499 19.4402 17.8499 19.4502C17.8499 19.4602 17.8499 19.4702 17.8499 19.4702C17.8499 19.4702 17.8499 19.4702 17.8499 19.4402L17.0699 19.3802L17.0799 19.4102ZM16.1499 26.8602C16.1499 26.8602 16.1499 26.9402 16.1499 26.9802L16.9199 26.9002C16.9199 26.9002 16.9199 26.9302 16.9199 26.9402L16.1499 26.8602ZM13.0799 30.0202C13.1199 29.6102 13.3999 29.1402 14.0099 28.6402C14.6199 28.1502 15.5099 27.6702 16.6599 27.2702L16.3999 26.5402C15.1999 26.9702 14.2199 27.4802 13.5199 28.0402C12.8299 28.6002 12.3599 29.2502 12.2999 29.9502L13.0699 30.0202H13.0799ZM13.0799 30.0802V29.9902H12.2999V30.0802H13.0799ZM13.1099 30.2202C13.0899 30.1602 13.0799 30.1002 13.0799 30.0402L12.3099 30.1102C12.3099 30.2102 12.3399 30.3202 12.3699 30.4202L13.1199 30.2102L13.1099 30.2202ZM14.6099 31.8802C13.6699 31.3302 13.2099 30.7502 13.1299 30.2602L12.3599 30.3902C12.4999 31.2302 13.2199 31.9602 14.2099 32.5502L14.6099 31.8802ZM15.5099 32.3702C15.1999 32.2202 14.8999 32.0602 14.6099 31.8802L14.1999 32.5402C14.5099 32.7402 14.8399 32.9102 15.1799 33.0702L15.5099 32.3702ZM16.7999 32.8902C16.3599 32.7402 15.9299 32.5702 15.5099 32.3702L15.1899 33.0802C15.6299 33.2802 16.0899 33.4702 16.5499 33.6202L16.7999 32.8802V32.8902ZM25.6299 34.2002C22.2999 34.2002 19.1699 33.7202 16.7999 32.8902L16.5399 33.6202C19.0099 34.4902 22.2399 34.9702 25.6299 34.9702V34.1902V34.2002ZM26.0699 34.2002H25.6299V34.9802H26.0699V34.2002ZM26.2099 34.2002H26.0799V34.9802H26.2099V34.2002ZM26.8199 34.1802C26.6199 34.1802 26.4199 34.2002 26.1999 34.2002V34.9802C26.4399 34.9802 26.6499 34.9702 26.8499 34.9602L26.8199 34.1802ZM27.4699 34.1602C27.2599 34.1602 27.0399 34.1602 26.8199 34.1802L26.8499 34.9602C27.0799 34.9602 27.2799 34.9402 27.4699 34.9402V34.1602ZM28.1199 34.1202L27.4499 34.1602L27.4999 34.9402L28.1699 34.9002L28.1199 34.1202ZM29.1499 34.0202C28.7999 34.0602 28.4499 34.0902 28.0999 34.1202L28.1699 34.8902C28.5299 34.8602 28.8799 34.8302 29.2299 34.7902L29.1499 34.0202ZM29.3899 34.0202H29.1899V34.8002H29.3899V34.0202ZM29.5799 33.9902L29.3399 34.0202L29.4399 34.7902L29.6799 34.7602L29.5799 33.9902ZM29.7099 33.9902H29.6299V34.7702H29.7099V33.9902ZM30.3199 33.9002C30.0899 33.9302 29.8699 33.9702 29.6599 33.9902L29.7499 34.7602C29.9699 34.7302 30.2099 34.7002 30.4299 34.6702L30.3199 33.9002ZM30.5399 33.8702L30.3199 33.9002L30.4399 34.6702L30.6599 34.6402L30.5399 33.8702ZM30.6699 33.8602H30.5999V34.6402H30.6699V33.8602ZM30.9699 33.8002C30.8499 33.8202 30.7299 33.8502 30.5999 33.8702L30.7199 34.6402C30.8599 34.6202 30.9799 34.5902 31.1099 34.5702L30.9599 33.8102L30.9699 33.8002ZM31.4199 33.7202C31.2599 33.7402 31.1099 33.7702 30.9699 33.8002L31.1199 34.5602C31.2599 34.5302 31.3899 34.5102 31.5399 34.4802L31.4199 33.7102V33.7202ZM32.2099 33.5702C31.9499 33.6302 31.6899 33.6802 31.4199 33.7302L31.5399 34.5002C31.8399 34.4502 32.1199 34.4002 32.3899 34.3302L32.2199 33.5702H32.2099ZM32.3299 33.5602H32.2999V34.3402H32.3299V33.5602ZM32.5599 33.5002L32.2399 33.5702L32.3999 34.3302L32.7199 34.2602L32.5599 33.5002ZM32.6799 33.4702L32.5499 33.5002L32.7299 34.2602L32.8599 34.2302L32.6799 33.4702ZM33.0499 33.3802L32.6799 33.4702L32.8699 34.2202L33.2399 34.1302L33.0499 33.3802ZM33.1999 33.3402L33.0399 33.3802L33.2499 34.1302L33.4099 34.0902L33.1999 33.3402ZM33.5699 33.2302L33.1999 33.3402L33.4199 34.0902L33.7899 33.9802L33.5699 33.2302ZM33.4199 33.2902L33.3599 33.3802L33.9999 33.8202L34.0599 33.7302L33.4199 33.2902ZM34.5799 32.8302C34.2599 32.9402 33.9599 33.0502 33.6299 33.1502L33.8499 33.9002C34.1999 33.8002 34.5199 33.6802 34.8399 33.5702L34.5799 32.8402V32.8302ZM34.7299 32.7702L34.5799 32.8202L34.8399 33.5502L34.9899 33.5002L34.7299 32.7702ZM34.8699 32.7202C34.8099 32.7402 34.7699 32.7602 34.7199 32.7802L34.9999 33.5102C35.0699 33.4802 35.1299 33.4602 35.1799 33.4302L34.8699 32.7202ZM35.0199 32.6502C34.9699 32.6702 34.9099 32.6902 34.8699 32.7102L35.1799 33.4202C35.1799 33.4202 35.2699 33.3802 35.3099 33.3702L35.0299 32.6502H35.0199ZM35.1799 32.5902C35.1199 32.6102 35.0699 32.6402 35.0099 32.6602L35.2999 33.3802C35.3499 33.3602 35.4099 33.3402 35.4599 33.3102L35.1699 32.5902H35.1799ZM35.6899 32.3702C35.5699 32.4302 35.3799 32.5002 35.1799 32.5802L35.4699 33.3002C35.6599 33.2202 35.8799 33.1402 36.0299 33.0602L35.6799 32.3602L35.6899 32.3702ZM35.7699 32.3302L35.6899 32.3702L36.0399 33.0702L36.1199 33.0302L35.7699 32.3302ZM36.2299 32.1002C36.0899 32.1802 35.9299 32.2602 35.7699 32.3402L36.1199 33.0402C36.2799 32.9602 36.4499 32.8802 36.6099 32.7902L36.2299 32.1102V32.1002ZM36.3799 32.0102L36.2199 32.1002L36.6099 32.7802L36.7699 32.6902L36.3799 32.0102ZM36.6899 31.8202C36.5899 31.8902 36.4899 31.9502 36.3799 32.0002L36.7499 32.6802C36.8799 32.6102 36.9899 32.5402 37.0999 32.4702L36.6799 31.8202H36.6899ZM36.8599 31.7102L36.6799 31.8302L37.1099 32.4802L37.2899 32.3602L36.8599 31.7102ZM37.0999 31.5302L36.8499 31.7202L37.3099 32.3502L37.5599 32.1602L37.0999 31.5302ZM37.2499 31.4202L37.0899 31.5402L37.5699 32.1502L37.7299 32.0302L37.2499 31.4202ZM37.4599 31.2302C37.3899 31.3002 37.3199 31.3602 37.2499 31.4202L37.7399 32.0302C37.8399 31.9502 37.9299 31.8702 38.0199 31.7802L37.4599 31.2402V31.2302ZM37.5699 31.1202L37.4799 31.2002L37.9899 31.7802L38.0799 31.7002L37.5699 31.1202ZM37.7699 30.8802C37.6999 30.9702 37.6299 31.0602 37.5399 31.1402L38.0999 31.6802C38.1999 31.5702 38.2999 31.4602 38.3899 31.3402L37.7699 30.8702V30.8802ZM37.8199 30.8102C37.8199 30.8102 37.7899 30.8602 37.7699 30.8802L38.3899 31.3502C38.4299 31.3002 38.4599 31.2502 38.4899 31.1902L37.8099 30.8102H37.8199ZM37.9499 30.6002C37.9199 30.6602 37.8799 30.7102 37.8399 30.7702L38.4699 31.2202C38.5299 31.1402 38.5799 31.0602 38.6299 30.9802L37.9499 30.6002ZM37.9799 30.5502C37.9799 30.5502 37.9499 30.5902 37.9399 30.6302L38.6499 30.9502L37.9799 30.5502ZM37.9599 30.6702C37.9599 30.6102 37.9799 30.5602 37.9799 30.5502V30.5402C37.9799 30.5402 37.9799 30.5402 37.9799 30.5502L38.6499 30.9502C38.6499 30.9502 38.6799 30.9102 38.6899 30.8702C38.7099 30.8302 38.7399 30.7602 38.7399 30.6702H37.9599ZM38.0099 30.4602C38.0099 30.4602 37.9999 30.4902 37.9899 30.5102L38.6999 30.8202C38.6999 30.8202 38.7299 30.7302 38.7499 30.6902L38.0099 30.4602ZM38.3299 30.9702H38.3799V30.1902H38.3299V30.9702ZM38.0099 31.0602L38.4199 30.9602L38.2299 30.2102L37.8199 30.3102L38.0099 31.0602ZM37.4499 31.2002C37.6499 31.1602 37.8399 31.1102 38.0199 31.0602L37.8199 30.3102C37.6399 30.3602 37.4599 30.4102 37.2799 30.4402L37.4399 31.2002H37.4499ZM36.9999 31.3002L37.4399 31.2002L37.2699 30.4402L36.8299 30.5402L36.9999 31.3002ZM36.7899 31.3402C36.8599 31.3302 36.9299 31.3102 36.9899 31.3002L36.8399 30.5402C36.7699 30.5502 36.6999 30.5702 36.6299 30.5802L36.7899 31.3402ZM36.4199 31.4102C36.5499 31.3902 36.6699 31.3602 36.7899 31.3402L36.6299 30.5802C36.5099 30.6002 36.3999 30.6302 36.2899 30.6502L36.4299 31.4202L36.4199 31.4102ZM35.9599 31.4902L36.4299 31.4102L36.2999 30.6402L35.8299 30.7202L35.9599 31.4902ZM35.7999 31.5202L35.9499 31.5002L35.8299 30.7302L35.6799 30.7502L35.7999 31.5202ZM35.3699 31.5902C35.4899 31.5702 35.6399 31.5502 35.7999 31.5202L35.6799 30.7502C35.5199 30.7802 35.3599 30.8002 35.2399 30.8202L35.3699 31.5902ZM35.0999 31.6302C35.1899 31.6202 35.2699 31.6102 35.3699 31.5902L35.2399 30.8202C35.1499 30.8302 35.0799 30.8402 34.9899 30.8602L35.0899 31.6302H35.0999ZM34.8899 31.6602C34.9699 31.6502 35.0399 31.6402 35.0999 31.6302L34.9999 30.8602C34.9399 30.8602 34.8699 30.8802 34.7799 30.8902L34.8899 31.6602ZM34.4499 31.7102C34.5899 31.6902 34.7399 31.6802 34.8899 31.6502L34.7799 30.8802C34.6399 30.9002 34.5099 30.9202 34.3599 30.9302L34.4499 31.7002V31.7102ZM34.2599 31.7402C34.3199 31.7402 34.3899 31.7202 34.4499 31.7202L34.3599 30.9502C34.2999 30.9502 34.2299 30.9702 34.1699 30.9702L34.2699 31.7402H34.2599ZM33.7799 31.7802L34.2499 31.7302L34.1699 30.9602L33.6999 31.0102L33.7799 31.7802ZM33.1099 31.8502L33.7799 31.7902L33.7099 31.0202L33.0399 31.0802L33.1099 31.8502ZM32.6499 31.8802L33.0999 31.8502L33.0399 31.0702L32.5899 31.1002L32.6499 31.8802ZM32.5699 31.8902H32.6499L32.5899 31.1102H32.5099L32.5699 31.8902ZM31.8799 31.9202C32.1199 31.9202 32.3599 31.9002 32.5699 31.8802L32.5099 31.1002C32.2899 31.1202 32.0799 31.1302 31.8799 31.1302V31.9102V31.9202ZM31.4999 31.9202H31.8699V31.1402H31.4999V31.9202ZM30.3499 31.9202H31.4999V31.1402H30.3499V31.9202ZM29.1199 31.9202H30.3499V31.1402H29.1199V31.9202ZM29.0099 31.9202H29.1199V31.1402H29.0099V31.9202ZM27.8499 31.8602C28.2199 31.8802 28.5999 31.9002 28.9999 31.9202L29.0299 31.1402C28.6399 31.1302 28.2699 31.1002 27.8999 31.0802L27.8499 31.8602ZM27.7099 31.8602H27.8699V31.0802H27.7099V31.8602ZM26.5999 31.7602C26.9499 31.8002 27.3199 31.8302 27.6799 31.8602L27.7399 31.0802C27.3799 31.0502 27.0299 31.0202 26.6799 30.9802L26.5999 31.7502V31.7602ZM26.4599 31.7602H26.6399V30.9802H26.4599V31.7602ZM25.3799 31.6302C25.7199 31.6802 26.0699 31.7202 26.4099 31.7602L26.4999 30.9902C26.1499 30.9502 25.8199 30.9102 25.4899 30.8602L25.3799 31.6302ZM25.2099 31.6002L25.3799 31.6302L25.4999 30.8602L25.3299 30.8302L25.2099 31.6002ZM24.2099 31.4302C24.5399 31.4902 24.8699 31.5502 25.2099 31.6002L25.3299 30.8302C24.9999 30.7802 24.6699 30.7202 24.3499 30.6602L24.2099 31.4202V31.4302ZM24.0699 31.4102L24.2099 31.4402L24.3499 30.6802L24.2099 30.6502L24.0699 31.4102ZM23.0899 31.2002C23.4099 31.2802 23.7399 31.3402 24.0699 31.4102L24.2199 30.6502C23.8899 30.5902 23.5799 30.5202 23.2699 30.4502L23.0899 31.2102V31.2002ZM23.0999 31.2102H23.1799V30.4302H23.0999V31.2102ZM22.0499 30.9502C22.3599 31.0402 22.6799 31.1202 22.9999 31.2002L23.1799 30.4402C22.8599 30.3602 22.5499 30.2802 22.2599 30.2002L22.0499 30.9502ZM22.1299 30.9602H22.1599V30.1802H22.1299V30.9602ZM21.1299 30.6702C21.4199 30.7702 21.7199 30.8602 22.0299 30.9502L22.2399 30.2002C21.9499 30.1202 21.6599 30.0302 21.3799 29.9302L21.1299 30.6702ZM21.0399 30.6402L21.1299 30.6702L21.3699 29.9302L21.2799 29.9002L21.0399 30.6402ZM20.2299 30.3402C20.4899 30.4402 20.7499 30.5402 21.0299 30.6402L21.2899 29.9102C21.0299 29.8202 20.7699 29.7202 20.5299 29.6302L20.2399 30.3502L20.2299 30.3402ZM20.1099 30.2802L20.2199 30.3302L20.5299 29.6202L20.4199 29.5702L20.1099 30.2802ZM19.3899 29.9602C19.6199 30.0702 19.8599 30.1802 20.1099 30.2802L20.3999 29.5602C20.1599 29.4602 19.9399 29.3602 19.7199 29.2602L19.3799 29.9602H19.3899ZM19.2899 29.9102L19.3999 29.9602L19.7299 29.2602L19.6199 29.2102L19.2899 29.9102ZM18.6299 29.5602C18.8399 29.6802 19.0499 29.7902 19.2799 29.9102L19.6299 29.2202C19.4099 29.1102 19.2099 29.0002 19.0199 28.8902L18.6299 29.5602ZM18.5299 29.5002L18.6299 29.5602L19.0199 28.8902L18.9199 28.8302L18.5299 29.5002ZM18.2999 29.3602C18.3699 29.4102 18.4399 29.4502 18.5099 29.4902L18.9399 28.8402C18.8699 28.7902 18.7999 28.7502 18.7299 28.7002L18.3099 29.3502L18.2999 29.3602ZM17.9299 29.1102C18.0499 29.2002 18.1799 29.2802 18.2999 29.3602L18.7199 28.7102C18.5999 28.6302 18.4899 28.5602 18.3799 28.4802L17.9299 29.1102ZM17.8599 29.0602L17.9299 29.1102L18.3899 28.4802L18.3199 28.4302L17.8599 29.0602ZM17.3399 28.6402C17.4999 28.7802 17.6799 28.9202 17.8699 29.0602L18.3299 28.4302C18.1599 28.3102 17.9999 28.1802 17.8599 28.0502L17.3499 28.6302L17.3399 28.6402ZM17.3099 28.6102L17.3399 28.6402L17.8499 28.0502L17.8199 28.0202L17.3099 28.6102ZM16.8399 28.1402C16.9799 28.3002 17.1399 28.4602 17.2999 28.6002L17.8199 28.0202C17.6799 27.8902 17.5499 27.7602 17.4199 27.6202L16.8399 28.1402ZM16.4699 27.6502C16.5799 27.8202 16.6999 27.9802 16.8299 28.1402L17.4199 27.6402C17.3099 27.5102 17.2099 27.3702 17.1199 27.2302L16.4699 27.6502ZM16.4499 27.6102L16.4799 27.6602L17.1199 27.2202L17.0899 27.1702L16.4499 27.6102ZM16.1799 27.0902C16.2499 27.2602 16.3399 27.4302 16.4299 27.5902L17.0999 27.1902C17.0199 27.0602 16.9599 26.9302 16.8999 26.7902L16.1799 27.0902ZM16.9999 40.2102C19.7999 41.0502 22.7099 41.4602 25.6299 41.4202V40.6402C22.7799 40.6802 19.9399 40.2802 17.2199 39.4602L16.9999 40.2002V40.2102ZM17.0699 40.2202H17.0999V39.4402H17.0699V40.2202ZM12.3299 36.6002C12.3799 37.3702 12.9199 38.0702 13.6999 38.6502C14.4899 39.2402 15.6099 39.7802 16.9499 40.2002L17.1899 39.4602C15.8899 39.0502 14.8699 38.5502 14.1699 38.0202C13.4599 37.4902 13.1399 36.9702 13.1099 36.5402L12.3299 36.5902V36.6002ZM12.3299 36.5002C12.3299 36.5002 12.3299 36.5302 12.3299 36.5502L13.1099 36.6002C13.1099 36.6002 13.1099 36.5102 13.1099 36.4602L12.3299 36.5102V36.5002ZM12.3299 32.3802V36.4802H13.1099V32.3802H12.3299ZM13.0799 32.1802L12.9599 32.0802L12.4599 32.6802L12.5799 32.7802L13.0799 32.1802ZM13.2299 32.3102L13.0799 32.1802L12.5699 32.7702L12.7199 32.9002L13.2299 32.3102ZM13.5899 32.5902C13.4599 32.4902 13.3399 32.4002 13.2299 32.3102L12.7299 32.9002C12.8599 33.0102 12.9899 33.1102 13.1199 33.2102L13.5899 32.5902ZM13.7499 32.7102L13.5699 32.5902L13.1199 33.2302L13.2999 33.3502L13.7499 32.7102ZM14.1799 32.9702C14.0199 32.8802 13.8799 32.7902 13.7499 32.7002L13.3099 33.3402C13.4599 33.4402 13.6299 33.5402 13.7899 33.6402L14.1799 32.9702ZM14.3599 33.0902L14.1799 32.9802L13.7699 33.6402L13.9499 33.7502L14.3599 33.0902ZM14.9799 33.4102C14.7499 33.3002 14.5499 33.1902 14.3499 33.0802L13.9699 33.7602C14.1799 33.8802 14.4099 34.0002 14.6399 34.1102L14.9799 33.4102ZM15.0499 33.4402L14.9899 33.4102L14.6199 34.1002L14.6799 34.1302L15.0499 33.4402ZM15.5899 33.6702C15.3899 33.5902 15.1999 33.5102 15.0299 33.4302L14.6999 34.1402C14.8899 34.2302 15.0999 34.3102 15.2999 34.3902L15.5899 33.6702ZM15.6999 33.7102L15.5899 33.6702L15.2999 34.3902L15.4099 34.4302L15.6999 33.7102ZM25.6299 35.3702C21.8199 35.3702 18.2499 34.7602 15.6999 33.7202L15.4099 34.4402C18.0799 35.5402 21.7499 36.1502 25.6399 36.1502V35.3702H25.6299ZM26.1499 35.3702H25.6299V36.1502H26.1499V35.3702ZM26.3799 35.3702H26.1499V36.1502H26.3799V35.3702ZM27.1299 35.3702H26.3799V36.1502H27.1299V35.3702ZM27.3999 35.3702H27.1299V36.1502H27.3999V35.3702ZM28.1299 35.3302C27.8799 35.3502 27.6399 35.3702 27.3899 35.3702V36.1502C27.6699 36.1502 27.9399 36.1302 28.1899 36.1102L28.1299 35.3302ZM28.2199 35.3202H28.1299L28.1899 36.1002H28.2799L28.2199 35.3202ZM29.4699 35.2002C29.0599 35.2502 28.6199 35.2902 28.2199 35.3202L28.2799 36.1002C28.6899 36.0702 29.1299 36.0202 29.5499 35.9802L29.4599 35.2102L29.4699 35.2002ZM29.7299 35.1702L29.4799 35.2002L29.5599 35.9702L29.8099 35.9402L29.7299 35.1702ZM29.8399 35.1702H29.7699V35.9502H29.8399V35.1702ZM30.4599 35.0802L29.7799 35.1802L29.8899 35.9502L30.5699 35.8502L30.4599 35.0802ZM30.7299 35.0402L30.4599 35.0802L30.5799 35.8502L30.8499 35.8102L30.7299 35.0402ZM30.8099 35.0302H30.7899V35.8102H30.8099V35.0302ZM31.6099 34.8902C31.3199 34.9502 31.0399 35.0002 30.7499 35.0402L30.8699 35.8102C31.1599 35.7602 31.4599 35.7202 31.7699 35.6502L31.6199 34.8902H31.6099ZM31.9499 34.8202C31.8399 34.8402 31.7199 34.8602 31.6099 34.8902L31.7599 35.6502C31.8699 35.6302 31.9799 35.6102 32.0899 35.5902L31.9499 34.8302V34.8202ZM32.4099 34.7302C32.2699 34.7602 32.1199 34.7902 31.9499 34.8202L32.0899 35.5802C32.2599 35.5502 32.4299 35.5202 32.5799 35.4802L32.3999 34.7202L32.4099 34.7302ZM32.4999 34.7102L32.4099 34.7302L32.5799 35.4902L32.6699 35.4702L32.4999 34.7102ZM32.6299 34.7002H32.5799V35.4802H32.6299V34.7002ZM33.2299 34.5502C33.0099 34.6102 32.7899 34.6702 32.5499 34.7102L32.6999 35.4702C32.9599 35.4202 33.1999 35.3602 33.4299 35.3002L33.2299 34.5502ZM33.3499 34.5202L33.2399 34.5502L33.4199 35.3102L33.5299 35.2802L33.3499 34.5202ZM34.0199 34.3302C33.8099 34.4002 33.5799 34.4602 33.3499 34.5202L33.5399 35.2802C33.7899 35.2202 34.0299 35.1502 34.2499 35.0802L34.0199 34.3402V34.3302ZM35.1899 33.9402C34.8099 34.0802 34.4199 34.2102 34.0199 34.3302L34.2399 35.0702C34.6599 34.9402 35.0599 34.8102 35.4499 34.6602L35.1799 33.9302L35.1899 33.9402ZM35.4599 33.8302C35.3599 33.8702 35.2799 33.9102 35.1899 33.9402L35.4599 34.6702C35.5699 34.6302 35.6699 34.5802 35.7699 34.5402L35.4599 33.8302ZM35.6599 33.7402C35.5899 33.7702 35.5199 33.8002 35.4599 33.8202L35.7699 34.5302C35.8299 34.5002 35.8899 34.4802 35.9499 34.4502L35.6599 33.7302V33.7402ZM35.7699 33.7002L35.6599 33.7402L35.9499 34.4602L36.0599 34.4202L35.7699 33.7002ZM36.2499 33.4902C36.0999 33.5602 35.9199 33.6302 35.7699 33.6902L36.0599 34.4102C36.2099 34.3502 36.4099 34.2702 36.5799 34.1902L36.2499 33.4802V33.4902ZM36.2899 33.4702L36.2299 33.5002L36.5999 34.1902L36.6599 34.1602L36.2899 33.4702ZM36.9199 33.1402C36.7299 33.2502 36.5199 33.3602 36.2999 33.4602L36.6299 34.1602C36.8699 34.0502 37.0899 33.9302 37.3099 33.8102L36.9199 33.1402ZM37.0999 33.0402L36.9199 33.1402L37.3099 33.8102L37.4899 33.7102L37.0999 33.0402ZM37.1599 33.0002L37.0899 33.0402L37.4999 33.7002L37.5699 33.6602L37.1599 33.0002ZM37.5399 32.7702C37.4199 32.8502 37.2999 32.9302 37.1599 33.0102L37.5699 33.6702C37.6999 33.5902 37.8399 33.5002 37.9699 33.4202L37.5399 32.7702ZM37.6999 32.6502L37.5299 32.7702L37.9799 33.4002L38.1499 33.2802L37.6999 32.6502ZM38.0399 32.3802C37.9399 32.4702 37.8299 32.5502 37.6999 32.6502L38.1599 33.2802C38.2999 33.1802 38.4399 33.0702 38.5699 32.9602L38.0499 32.3802H38.0399ZM38.1899 32.2502L38.0399 32.3802L38.5399 32.9702L38.6899 32.8402L38.1899 32.2502ZM38.2599 32.1902C38.2599 32.1902 38.2099 32.2302 38.1699 32.2702L38.7199 32.8202C38.7199 32.8202 38.7299 32.8202 38.7399 32.8002L38.2499 32.2002L38.2599 32.1902ZM38.2799 32.1702C38.2799 32.1702 38.2699 32.1702 38.2599 32.1902L38.7499 32.7902C38.7499 32.7902 38.7999 32.7502 38.8399 32.7102L38.2899 32.1602L38.2799 32.1702ZM38.9499 36.4602V32.4402H38.1699V36.4602H38.9499ZM38.9499 36.5102V36.4702H38.1699V36.5102H38.9499ZM38.9499 36.5602V36.5002H38.1699V36.5602H38.9499ZM25.6199 41.4202C29.4299 41.4202 32.6699 40.8402 34.9899 39.9702C36.1499 39.5402 37.0999 39.0302 37.7699 38.4702C38.4399 37.9202 38.8899 37.2802 38.9399 36.5902L38.1599 36.5302C38.1299 36.9202 37.8599 37.3802 37.2699 37.8702C36.6799 38.3502 35.8199 38.8302 34.7099 39.2402C32.4899 40.0702 29.3499 40.6402 25.6099 40.6402V41.4202H25.6199ZM38.7899 28.9202C36.0599 29.7402 33.2299 30.1402 30.3799 30.1002V30.8802C33.2999 30.9202 36.2099 30.5102 39.0099 29.6702L38.7899 28.9302V28.9202ZM42.9299 25.9802C42.8899 26.4202 42.5599 26.9402 41.8399 27.4702C41.1299 28.0002 40.0999 28.5002 38.7899 28.9202L39.0299 29.6602C40.3899 29.2302 41.4999 28.6902 42.3099 28.1002C43.0999 27.5102 43.6399 26.8202 43.7099 26.0502L42.9399 25.9802H42.9299ZM42.9299 25.9302V26.0202H43.7099V25.9302H42.9299ZM42.9299 21.8402V25.9202H43.7099V21.8402H42.9299ZM43.5199 22.1802C43.5199 22.1802 43.5499 22.1502 43.5799 22.1302L43.0599 21.5502C43.0599 21.5502 43.0499 21.5602 43.0299 21.5702L43.5199 22.1802ZM43.4899 22.2002C43.4899 22.2002 43.4999 22.2002 43.5099 22.1802L43.0199 21.5702C43.0199 21.5702 42.9699 21.6102 42.9299 21.6502L43.4799 22.2002H43.4899ZM43.2799 22.3802L43.4599 22.2202L42.9499 21.6302L42.7699 21.7902L43.2799 22.3802ZM42.9199 22.6602C43.0499 22.5702 43.1599 22.4802 43.2799 22.3802L42.7799 21.7802C42.6799 21.8702 42.5699 21.9502 42.4699 22.0302L42.9199 22.6602ZM42.7099 22.8102L42.9199 22.6602L42.4799 22.0202L42.2699 22.1702L42.7099 22.8102ZM42.2699 23.0902C42.4199 23.0002 42.5699 22.9002 42.7099 22.8102L42.2799 22.1602C42.1499 22.2502 42.0199 22.3302 41.8799 22.4102L42.2799 23.0802L42.2699 23.0902ZM42.1999 23.1302C42.1999 23.1302 42.2499 23.1002 42.2699 23.0902L41.8799 22.4202C41.8799 22.4202 41.8199 22.4502 41.7999 22.4702L42.1999 23.1402V23.1302ZM42.0399 23.2202C42.0999 23.1902 42.1499 23.1602 42.1899 23.1302L41.7899 22.4602C41.7899 22.4602 41.7099 22.5102 41.6799 22.5302L42.0399 23.2202ZM41.3299 23.6002C41.5799 23.4802 41.8299 23.3502 42.0699 23.2002L41.6599 22.5402C41.4599 22.6702 41.2399 22.7802 40.9999 22.8902L41.3299 23.5902V23.6002ZM30.3999 25.6202C34.6199 25.6202 38.6099 24.8902 41.3299 23.6002L40.9999 22.9002C38.4199 24.1302 34.5599 24.8402 30.3999 24.8402V25.6202ZM19.4699 23.6002C22.1899 24.8902 26.1799 25.6202 30.3999 25.6202V24.8402C26.2499 24.8402 22.3799 24.1202 19.7999 22.9002L19.4699 23.6002ZM18.7399 23.2102C18.9699 23.3402 19.1999 23.4602 19.4599 23.5902L19.8099 22.9002C19.5599 22.7802 19.3399 22.6502 19.1199 22.5302L18.7399 23.2102ZM18.5699 23.1102C18.6199 23.1402 18.6799 23.1802 18.7499 23.2202L19.1099 22.5302C19.1099 22.5302 19.0299 22.4802 18.9799 22.4502L18.5699 23.1102ZM18.5299 23.0902C18.5299 23.0902 18.5599 23.1102 18.5699 23.1202L18.9799 22.4602C18.9799 22.4602 18.9499 22.4402 18.9399 22.4302L18.5299 23.0902ZM18.0899 22.8102C18.2299 22.9002 18.3799 23.0002 18.5299 23.0902L18.9299 22.4202C18.7899 22.3402 18.6599 22.2502 18.5299 22.1702L18.0999 22.8202L18.0899 22.8102ZM17.8799 22.6602L18.0899 22.8102L18.5399 22.1802L18.3299 22.0302L17.8799 22.6602ZM17.6099 22.4502C17.6799 22.5102 17.7899 22.5902 17.8799 22.6602L18.3299 22.0302C18.2599 21.9802 18.1699 21.9102 18.0899 21.8502L17.5999 22.4602L17.6099 22.4502ZM17.5299 22.3902C17.5299 22.3902 17.5699 22.4202 17.6099 22.4502L18.0999 21.8402C18.0999 21.8402 18.0299 21.7802 17.9999 21.7602L17.5299 22.3802V22.3902ZM17.3399 22.2302C17.3899 22.2702 17.4599 22.3302 17.5299 22.3802L17.9999 21.7602C17.9999 21.7602 17.8999 21.6802 17.8499 21.6402L17.3399 22.2302ZM17.3299 22.2202C17.3299 22.2202 17.3299 22.2202 17.3399 22.2202L17.8499 21.6302C17.8499 21.6302 17.8499 21.6302 17.8399 21.6302L17.3299 22.2202ZM17.2299 22.1302L17.3299 22.2202L17.8499 21.6402L17.7499 21.5502L17.2299 22.1302ZM17.8699 25.9902V21.8402H17.0899V25.9902H17.8699ZM17.8699 26.0902C17.8699 26.0902 17.8699 26.0002 17.8699 25.9502L17.0999 26.0102L17.8699 26.0702V26.0902ZM17.8699 26.1502C17.8699 26.1502 17.8699 26.0502 17.8699 26.0102L17.0999 26.1202C17.0999 26.1202 17.0999 26.0702 17.0999 26.0402L17.8699 26.1502ZM17.9399 26.3202C17.8999 26.2302 17.8799 26.1402 17.8699 26.0402L17.0999 26.1402C17.1199 26.3002 17.1599 26.4602 17.2199 26.6102L17.9399 26.3202ZM30.3799 30.1002C26.9499 30.1002 23.9999 29.6102 21.8099 28.8702C20.7199 28.5002 19.8299 28.0802 19.1699 27.6302C18.4999 27.1802 18.0999 26.7302 17.9399 26.3202L17.2199 26.6102C17.4699 27.2202 18.0099 27.7802 18.7299 28.2702C19.4599 28.7702 20.4199 29.2202 21.5599 29.6002C23.8399 30.3702 26.8699 30.8702 30.3699 30.8702V30.0902L30.3799 30.1002Z" fill="white"/>
</g>
<defs>
<linearGradient id="paint0_linear_331_58" x1="2.47573" y1="-1.75541e-06" x2="56" y2="44.4654" gradientUnits="userSpaceOnUse">
<stop stop-color="#4D4BE5"/>
<stop offset="1" stop-color="#0AAFD5"/>
</linearGradient>
<clipPath id="clip0_331_58">
<rect width="56" height="56" fill="white"/>
</clipPath>
</defs>
</svg>
