<svg width="30" height="30" viewBox="0 0 30 30" fill="none" xmlns="http://www.w3.org/2000/svg">
<rect width="30" height="30" rx="8" fill="#F5B300"/>
<path d="M9.72985 6.89691C10.2807 7.04714 10.8316 7.1473 11.3824 7.29754C11.9333 7.44777 12.4842 7.54793 13.035 7.69816C13.1853 7.74824 13.2353 7.69816 13.2854 7.54793C13.4857 6.6966 13.686 5.89534 13.8863 5.04401C13.9364 4.89378 13.9865 4.8437 14.1367 4.89378C14.6375 5.04401 15.0882 5.14417 15.589 5.24433C15.7392 5.29441 15.7392 5.34448 15.6892 5.44464C15.4888 6.24589 15.2885 7.09722 15.0882 7.89847C15.0882 7.94855 15.0882 7.99863 15.0381 8.09879C15.4388 8.19894 15.8895 8.2991 16.2901 8.39926C16.3402 8.39926 16.3903 8.2991 16.4403 8.24902C16.5906 7.598 16.7408 6.99707 16.9411 6.34605C16.9912 6.14574 17.0413 5.94542 17.0914 5.74511C17.0914 5.64495 17.1414 5.59487 17.2416 5.64495C17.7424 5.79519 18.2432 5.89534 18.794 6.04558C18.8441 6.04558 18.8441 6.09566 18.8942 6.09566C18.7439 6.74667 18.5937 7.34761 18.4435 7.94855C18.3934 8.19894 18.3433 8.44933 18.2432 8.69973C18.1931 8.84996 18.2432 8.90004 18.3934 8.95012C18.9442 9.20051 19.4951 9.4509 20.046 9.70129C20.5468 10.0018 20.9975 10.4024 21.348 10.9032C21.7987 11.6543 21.8488 12.4556 21.6485 13.2568C21.4982 13.8077 21.2979 14.3085 20.8973 14.7091C20.5968 15.0096 20.1962 15.2099 19.7956 15.3601C19.7455 15.3601 19.6954 15.4102 19.5953 15.4102C19.7956 15.5604 19.9959 15.6606 20.1962 15.8108C20.7971 16.2615 21.1978 16.8124 21.3981 17.5135C21.4982 18.0644 21.4482 18.6653 21.2979 19.2162C21.0976 19.9173 20.8472 20.5182 20.3965 21.0691C19.8457 21.7201 19.1446 22.0706 18.3433 22.1708C17.2917 22.321 16.2901 22.2209 15.2885 22.0706C15.1383 22.0205 15.0381 22.0706 14.9881 22.2209C14.7878 23.0221 14.5874 23.8734 14.3871 24.6747C14.337 24.875 14.337 24.9251 14.0867 24.8249C13.636 24.7248 13.1352 24.5745 12.6845 24.4744C12.5342 24.4243 12.5342 24.3742 12.5843 24.2741C12.7846 23.4227 12.9849 22.5714 13.2353 21.7701C13.2353 21.67 13.2854 21.6199 13.1853 21.5698C12.7846 21.4697 12.384 21.3695 11.9333 21.2694C11.8331 21.7201 11.6829 22.1708 11.5827 22.6215C11.4826 23.0722 11.3324 23.5229 11.2322 23.9736C11.1821 24.0737 11.1821 24.1238 11.0319 24.0737C10.5311 23.9235 10.0303 23.8234 9.52954 23.7232C9.3793 23.6731 9.3793 23.623 9.42938 23.5229C9.62969 22.6716 9.83001 21.8202 10.0804 21.019C10.0804 20.9689 10.1305 20.9188 10.1305 20.8187C8.97868 20.5182 7.82688 20.2177 6.625 19.9173C6.72516 19.7169 6.77523 19.5667 6.87539 19.3664C7.0757 18.9157 7.27602 18.465 7.42625 18.0644C7.47633 17.9141 7.52641 17.9141 7.67664 17.9141C8.02719 18.0143 8.42782 18.1144 8.77836 18.1645C9.17899 18.2647 9.47946 18.0644 9.52954 17.7138C10.1806 15.1598 10.8316 12.6058 11.4325 10.0018C11.5327 9.60113 11.2823 9.15043 10.8316 9.0002C10.3809 8.84996 9.93016 8.7498 9.52954 8.64965C9.42938 8.64965 9.3793 8.59957 9.42938 8.49941C9.57962 7.94855 9.72985 7.34761 9.88009 6.79675C9.67977 6.94699 9.67977 6.94699 9.72985 6.89691ZM12.2838 19.2662C12.3339 19.2662 12.384 19.3163 12.384 19.3163C13.1853 19.5166 14.0366 19.767 14.8879 19.8171C15.4888 19.8672 16.0397 19.8672 16.5906 19.6669C17.5421 19.3664 17.9427 18.1144 17.3918 17.3132C17.1414 16.9126 16.7408 16.6622 16.3402 16.4118C15.4388 15.911 14.3871 15.7107 13.3856 15.5104C13.2353 15.4603 13.2353 15.5104 13.1853 15.6606C13.0851 16.1614 12.9349 16.6121 12.8347 17.1129C12.6344 17.814 12.4842 18.5151 12.2838 19.2662ZM16.4904 14.1583C16.5906 14.1583 16.841 14.1082 17.0413 14.0581C17.9928 13.8578 18.4935 12.7561 17.9928 11.9047C17.7424 11.454 17.2917 11.1536 16.841 10.9532C16.1399 10.6528 15.4388 10.5025 14.6876 10.3022C14.5374 10.2522 14.4873 10.3022 14.4372 10.4525C14.1868 11.5041 13.9364 12.5057 13.636 13.5573C13.5859 13.6575 13.636 13.7076 13.7361 13.7576C13.9364 13.8077 14.0867 13.8578 14.287 13.9079C15.0381 14.008 15.6892 14.1583 16.4904 14.1583Z" fill="white"/>
</svg>
