<svg width="30" height="30" viewBox="0 0 30 30" fill="none" xmlns="http://www.w3.org/2000/svg">
<rect width="30" height="30" rx="8" fill="#F3BA2F"/>
<path d="M17.0841 22.4353V24.9569L14.8859 26.25L12.7522 24.9569V22.4353L14.8859 23.7284L17.0841 22.4353ZM5.31689 13.7069L7.45051 15V19.3319L11.1359 21.5302V24.0517L5.31689 20.625V13.7069ZM24.4548 13.7069V20.625L18.5712 24.0517V21.5302L22.2565 19.3319V15L24.4548 13.7069V13.7069ZM18.5712 10.2802L20.7695 11.5733V14.0948L17.0841 16.2931V20.6896L14.9505 21.9828L12.8169 20.6896V16.2931L9.00224 14.0948V11.5733L11.2005 10.2802L14.8859 12.4784L18.5712 10.2802V10.2802ZM9.00224 15.9052L11.1359 17.1983V19.7198L9.00224 18.4267V15.9052ZM20.7695 15.9052V18.4267L18.6359 19.7198V17.1983L20.7695 15.9052ZM7.45051 8.08189L9.64879 9.375L7.45051 10.6681V13.1897L5.31689 11.8965V9.375L7.45051 8.08189V8.08189ZM22.3212 8.08189L24.5195 9.375V11.8965L22.3212 13.1897V10.6681L20.1876 9.375L22.3212 8.08189V8.08189ZM14.8859 8.08189L17.0841 9.375L14.8859 10.6681L12.7522 9.375L14.8859 8.08189V8.08189ZM14.8859 3.75L20.7695 7.17672L18.6359 8.46983L14.9505 6.27155L11.2005 8.46983L9.06689 7.17672L14.8859 3.75V3.75Z" fill="white"/>
</svg>
