<svg width="30" height="30" viewBox="0 0 30 30" fill="none" xmlns="http://www.w3.org/2000/svg">
<rect width="30" height="30" rx="8" fill="#50AF95"/>
<path d="M15.0736 6.34376C17.394 6.34376 19.6216 6.34376 21.942 6.34376C22.1276 6.34376 22.2205 6.43777 22.2205 6.53178C23.5199 9.44599 24.8193 12.2662 26.2116 15.0864C26.3044 15.1804 26.2116 15.2744 26.1187 15.3684C24.5409 16.9666 22.963 18.5647 21.2923 20.1628C19.2503 22.1369 17.1156 24.2051 15.0736 26.1792C14.888 26.2733 14.888 26.2733 14.7951 26.1792C12.7532 24.2051 10.7112 22.231 8.66927 20.1628C7.09139 18.5647 5.42069 16.9666 3.84282 15.3684C3.75 15.2744 3.75 15.1804 3.75 15.0864C4.39971 13.5823 5.14224 12.1722 5.79196 10.6681C6.44167 9.25798 7.09139 7.94188 7.7411 6.53178C7.83392 6.34376 7.92673 6.24976 8.20518 6.24976C10.5256 6.34376 12.7532 6.24976 15.0736 6.34376ZM15.1664 8.88195C13.4957 8.88195 11.7322 8.88195 10.0615 8.88195C9.96869 8.88195 9.9687 8.88195 9.87588 8.88195C9.78306 8.88195 9.78306 8.88195 9.78306 8.97596C9.78306 9.82202 9.78306 10.6681 9.69025 11.6082C9.69025 11.7022 9.69025 11.7022 9.78306 11.7022C10.0615 11.7022 10.34 11.7022 10.6184 11.7022C11.5466 11.7022 12.4747 11.7022 13.4029 11.7022C13.4957 11.7022 13.4957 11.7022 13.5885 11.7022C13.6813 11.7022 13.6813 11.7962 13.6813 11.8902C13.6813 12.2662 13.6813 12.7362 13.6813 13.1123C13.6813 13.2063 13.6813 13.2063 13.5885 13.3003C12.9388 13.3943 12.2891 13.3943 11.6394 13.4883C10.804 13.5823 9.96869 13.7703 9.22616 14.0523C8.8549 14.1463 8.57645 14.3344 8.298 14.5224C8.01955 14.8044 8.01955 15.1804 8.298 15.3684C8.48363 15.5565 8.66927 15.6505 8.8549 15.7445C9.50461 16.0265 10.1543 16.1205 10.804 16.3085C11.7322 16.4965 12.6604 16.5905 13.5885 16.6845C13.7742 16.6845 13.7742 16.6845 13.7742 16.8726C13.7742 18.5647 13.7742 20.3508 13.7742 22.0429C13.7742 22.231 13.7742 22.231 13.9598 22.231C14.7951 22.231 15.7233 22.231 16.5587 22.231C16.8371 22.231 16.8371 22.231 16.8371 21.9489C16.8371 20.5388 16.8371 19.2227 16.8371 17.8126C16.8371 17.4366 16.8371 17.0606 16.8371 16.6845C16.8371 16.4965 16.9299 16.4965 17.0227 16.4965C17.9509 16.4965 18.7862 16.4025 19.7144 16.2145C20.4569 16.1205 21.1067 15.9325 21.7564 15.6505C21.942 15.5565 22.1276 15.3684 22.3133 15.2744C22.4989 15.0864 22.4989 14.8984 22.3133 14.7104C22.1276 14.6164 22.0348 14.4284 21.8492 14.3344C20.7354 13.6763 19.436 13.3943 18.1365 13.3003C17.7653 13.3003 17.394 13.3003 17.0227 13.2063C16.9299 13.2063 16.9299 13.2063 16.9299 13.0183C16.9299 12.6422 16.9299 12.1722 16.9299 11.7962C16.9299 11.7022 16.9299 11.6082 17.1156 11.6082C17.394 11.6082 17.6725 11.6082 17.9509 11.6082C18.8791 11.6082 19.7144 11.6082 20.6426 11.6082C20.8282 11.6082 20.8282 11.5142 20.8282 11.4201C20.8282 11.3261 20.8282 11.3261 20.8282 11.2321C20.8282 10.4801 20.8282 9.72802 20.8282 8.88195C20.8282 8.69394 20.8282 8.69394 20.6426 8.69394C18.6006 8.88195 16.8371 8.88195 15.1664 8.88195Z" fill="white"/>
<path d="M14.7022 16.0264C14.0525 16.0264 13.4956 16.0264 12.8459 15.9324C11.8249 15.8384 10.7111 15.7444 9.6901 15.3684C9.50446 15.2744 9.31883 15.1804 9.04038 15.0864C8.76193 14.8983 8.76193 14.7103 9.04038 14.6163C9.41165 14.4283 9.78291 14.3343 10.1542 14.2403C10.8967 14.0523 11.6392 13.9583 12.4746 13.8643C12.753 13.8643 13.1243 13.7703 13.4028 13.7703C13.4956 13.7703 13.5884 13.7703 13.5884 13.9583C13.5884 14.5223 13.5884 14.9924 13.5884 15.5564C13.5884 15.7444 13.6812 15.7444 13.774 15.7444C14.5165 15.7444 15.2591 15.7444 15.9088 15.7444C16.0944 15.7444 16.2801 15.7444 16.4657 15.7444C16.6513 15.7444 16.6513 15.7444 16.6513 15.5564C16.6513 15.0864 16.6513 14.6163 16.6513 14.1463C16.6513 13.8643 16.6513 13.8643 16.9298 13.8643C18.1364 13.9583 19.343 14.0523 20.5496 14.4283C20.7352 14.5223 21.0137 14.6163 21.1993 14.7103C21.385 14.8043 21.385 14.9924 21.1993 15.0864C20.8281 15.3684 20.4568 15.4624 19.9927 15.5564C19.0645 15.7444 18.1364 15.9324 17.2082 15.9324C16.4657 15.9324 15.5375 16.0264 14.7022 16.0264Z" fill="white"/>
</svg>
