<svg width="30" height="30" viewBox="0 0 30 30" fill="none" xmlns="http://www.w3.org/2000/svg">
<rect x="0.000488281" y="0.000488281" width="30" height="30" rx="8" fill="#0066CC"/>
<path d="M14.9998 29.9995C23.2839 29.9995 29.9995 23.2839 29.9995 14.9998C29.9995 6.71562 23.2839 0 14.9998 0C6.71562 0 0 6.71562 0 14.9998C0 23.2839 6.71562 29.9995 14.9998 29.9995Z" fill="#0066CC"/>
<path d="M18.8292 16.973C18.8292 14.8405 17.5497 14.1093 14.9906 13.8047C13.1627 13.5609 12.7971 13.0735 12.7971 12.2204C12.7971 11.3673 13.4064 10.819 14.625 10.819C15.7218 10.819 16.3311 11.1846 16.6357 12.0986C16.6967 12.2814 16.8795 12.4032 17.0623 12.4032H18.0371C18.2809 12.4032 18.4637 12.2204 18.4637 11.9768V11.9158C18.2199 10.5752 17.1231 9.53947 15.7218 9.41766V7.95532C15.7218 7.71155 15.539 7.52875 15.2344 7.46777H14.3204C14.0766 7.46777 13.8938 7.65057 13.8329 7.95532V9.35668C12.0049 9.60045 10.8473 10.819 10.8473 12.3423C10.8473 14.3531 12.0659 15.1451 14.625 15.4498C16.3311 15.7544 16.8795 16.12 16.8795 17.0949C16.8795 18.0699 16.0264 18.7401 14.8688 18.7401C13.2845 18.7401 12.7361 18.0697 12.5533 17.1558C12.4925 16.9122 12.3097 16.7902 12.1269 16.7902H11.091C10.8473 16.7902 10.6646 16.973 10.6646 17.2168V17.2777C10.9082 18.8009 11.8831 19.8977 13.8938 20.2024V21.6648C13.8938 21.9084 14.0766 22.0912 14.3812 22.1522H15.2952C15.539 22.1522 15.7218 21.9694 15.7827 21.6648V20.2024C17.6107 19.8977 18.8292 18.6181 18.8292 16.973Z" fill="white"/>
<path d="M11.7004 23.3706C6.94777 21.6646 4.51049 16.3636 6.27758 11.6719C7.19154 9.11276 9.20226 7.16302 11.7004 6.24906C11.9442 6.12724 12.066 5.94445 12.066 5.6397V4.78671C12.066 4.54294 11.9442 4.36015 11.7004 4.29932C11.6394 4.29932 11.5176 4.29932 11.4566 4.36015C5.66822 6.18808 2.49977 12.3422 4.32769 18.1306C5.42445 21.5427 8.04453 24.1627 11.4566 25.2595C11.7004 25.3813 11.9442 25.2595 12.005 25.0157C12.066 24.9549 12.066 24.8939 12.066 24.7721V23.919C12.066 23.7362 11.8832 23.4925 11.7004 23.3706ZM18.1591 4.36015C17.9153 4.23834 17.6716 4.36015 17.6107 4.60392C17.5497 4.6649 17.5497 4.72573 17.5497 4.84769V5.70068C17.5497 5.94445 17.7325 6.18808 17.9153 6.31004C22.6679 8.016 25.1052 13.317 23.3381 18.0088C22.4242 20.5679 20.4134 22.5176 17.9153 23.4316C17.6716 23.5534 17.5497 23.7362 17.5497 24.0409V24.8939C17.5497 25.1377 17.6716 25.3205 17.9153 25.3813C17.9763 25.3813 18.0981 25.3813 18.1591 25.3205C23.9475 23.4925 27.1159 17.3384 25.288 11.55C24.1913 8.07698 21.5102 5.45691 18.1591 4.36015Z" fill="white"/>
</svg>
