<svg width="48" height="48" viewBox="0 0 48 48" fill="none" xmlns="http://www.w3.org/2000/svg">
<path d="M23.5 8.02539C19.2633 8.02539 15.2002 9.7084 12.2044 12.7042C9.20864 15.6999 7.52563 19.7631 7.52563 23.9998C7.52563 28.2364 9.20864 32.2996 12.2044 35.2953C15.2002 38.2911 19.2633 39.9741 23.5 39.9741C27.7367 39.9741 31.7998 38.2911 34.7956 35.2953C37.7914 32.2996 39.4744 28.2364 39.4744 23.9998C39.4744 19.7631 37.7914 15.6999 34.7956 12.7042C31.7998 9.7084 27.7367 8.02539 23.5 8.02539Z" fill="white"/>
<path d="M11.446 5.16846C7.97927 5.16846 5.16895 7.97879 5.16895 11.4455V36.5538C5.16895 40.0205 7.97927 42.8308 11.446 42.8308H36.5542C40.021 42.8308 42.8313 40.0205 42.8313 36.5538V11.4455C42.8313 7.97879 40.021 5.16846 36.5542 5.16846H11.446ZM13.3165 13.239H20.4342L25.4888 20.4215L31.6223 13.239H33.8641L26.5011 21.8594L35.5805 34.7603H28.4645L22.599 26.4271L15.4813 34.7603H13.2394L21.5867 24.9892L13.3165 13.239ZM16.7493 15.0324L29.3997 32.9669H32.1477L19.4972 15.0324H16.7493Z" fill="black"/>
</svg>
