<?xml version="1.0" encoding="UTF-8"?>
<svg id="_Слой_1" data-name="Слой 1" xmlns="http://www.w3.org/2000/svg" xmlns:xlink="http://www.w3.org/1999/xlink" viewBox="0 0 58.26 36.79">
  <defs>
    <style>
      .cls-1 {
        fill: url(#_Безымянный_градиент_637);
      }

      .cls-2 {
        fill: url(#_Безымянный_градиент_670);
      }

      .cls-3 {
        fill: #006cd4;
      }
    </style>
    <linearGradient id="_Безымянный_градиент_637" data-name="Безымянный градиент 637" x1="13.49" y1="11.63" x2="45.67" y2="11.63" gradientUnits="userSpaceOnUse">
      <stop offset="0" stop-color="#1593ff"/>
      <stop offset="1" stop-color="#006cd4"/>
    </linearGradient>
    <linearGradient id="_Безымянный_градиент_670" data-name="Безымянный градиент 670" x1="12.32" y1="11.65" x2="39.98" y2="11.65" gradientUnits="userSpaceOnUse">
      <stop offset="0" stop-color="#3ff6ff"/>
      <stop offset="1" stop-color="#15c7ff"/>
    </linearGradient>
  </defs>
  <g>
    <path class="cls-3" d="M.65,28.29c.43-.84,1.02-1.49,1.77-1.94.74-.45,1.58-.68,2.5-.68.8,0,1.51.16,2.11.48.6.32,1.09.73,1.45,1.22v-1.54h2.74v10.77h-2.74v-1.57c-.35.51-.83.92-1.45,1.25-.61.33-1.32.49-2.13.49-.91,0-1.73-.23-2.48-.7-.75-.47-1.34-1.13-1.77-1.97s-.65-1.82-.65-2.92.22-2.05.65-2.89ZM8.09,29.53c-.26-.47-.61-.84-1.05-1.09-.44-.25-.91-.38-1.42-.38s-.97.12-1.4.37c-.43.25-.78.61-1.04,1.08-.27.47-.4,1.03-.4,1.68s.13,1.22.4,1.7c.27.49.62.86,1.05,1.12.43.26.9.39,1.39.39s.98-.13,1.42-.38c.44-.25.79-.61,1.05-1.09.26-.47.39-1.04.39-1.7s-.13-1.23-.39-1.7Z"/>
    <path class="cls-3" d="M23.8,32.05h-7.87c.07.78.34,1.39.82,1.83.48.44,1.07.66,1.77.66,1.01,0,1.73-.43,2.16-1.3h2.93c-.31,1.04-.91,1.89-1.79,2.56-.88.67-1.96,1-3.24,1-1.04,0-1.97-.23-2.79-.69-.82-.46-1.46-1.11-1.92-1.95-.46-.84-.69-1.81-.69-2.92s.23-2.09.68-2.93c.45-.84,1.09-1.49,1.9-1.94s1.75-.68,2.82-.68,1.94.22,2.75.66c.81.44,1.44,1.07,1.89,1.87.45.81.67,1.74.67,2.79,0,.39-.03.74-.08,1.05ZM21.06,30.22c-.01-.7-.27-1.26-.76-1.68-.49-.42-1.09-.63-1.81-.63-.67,0-1.24.2-1.7.61s-.74.98-.84,1.7h5.11Z"/>
    <path class="cls-3" d="M30.36,34.1l2.72-8.26h2.89l-3.98,10.77h-3.3l-3.96-10.77h2.92l2.72,8.26Z"/>
    <path class="cls-3" d="M39.49,36.1c-.83-.46-1.48-1.11-1.95-1.95-.47-.84-.71-1.81-.71-2.92s.24-2.07.73-2.92c.49-.84,1.15-1.49,1.99-1.95.84-.46,1.78-.69,2.82-.69s1.98.23,2.82.69c.84.46,1.51,1.11,1.99,1.95.49.84.73,1.81.73,2.92s-.25,2.07-.75,2.92-1.17,1.49-2.02,1.95c-.85.46-1.8.69-2.85.69s-1.97-.23-2.8-.69ZM43.68,34.06c.43-.24.78-.6,1.04-1.08.26-.48.39-1.06.39-1.75,0-1.02-.27-1.81-.81-2.36s-1.19-.83-1.97-.83-1.43.28-1.95.83-.79,1.34-.79,2.36.25,1.81.77,2.36c.51.55,1.16.83,1.93.83.49,0,.95-.12,1.39-.36Z"/>
    <path class="cls-3" d="M51.65,36.31c-.7-.32-1.25-.75-1.66-1.29-.41-.54-.63-1.15-.67-1.81h2.74c.05.41.26.76.61,1.03.36.27.8.41,1.33.41s.92-.1,1.22-.31c.29-.21.44-.47.44-.8,0-.35-.18-.61-.53-.79-.36-.18-.92-.37-1.7-.57-.8-.19-1.46-.4-1.97-.6-.51-.21-.95-.52-1.32-.95-.37-.43-.55-1-.55-1.73,0-.6.17-1.14.51-1.63.34-.49.84-.88,1.48-1.17.64-.28,1.4-.43,2.27-.43,1.28,0,2.3.32,3.07.96.77.64,1.19,1.51,1.26,2.6h-2.6c-.04-.43-.22-.77-.53-1.02-.32-.25-.74-.38-1.27-.38-.49,0-.87.09-1.14.27s-.4.43-.4.76c0,.36.18.64.54.83.36.19.92.38,1.69.57.78.19,1.42.4,1.92.6.51.21.94.53,1.31.96.37.43.56,1.01.57,1.72,0,.62-.17,1.18-.51,1.67-.34.49-.84.88-1.48,1.16-.64.28-1.39.42-2.25.42s-1.67-.16-2.37-.48Z"/>
  </g>
  <path class="cls-1" d="M33.35,13.56c-2.82-.01-6.23-.02-9.05-.02h-.89c-1.36,0-2.53-.01-3.36-.01h-1.32s-.08,0-.24-.01c-.03,0-.06-.01-.1-.01-.01-.01-.03-.01-.05-.01h-.05c-.26-.02-.62-.07-1.02-.17-.31-.07-.65-.18-1-.31-.16-.06-.31-.13-.47-.21-.02-.01-.03-.02-.05-.03-.08-.04-.16-.08-.24-.14-.09-.05-.19-.12-.27-.19-.1-.06-.21-.14-.3-.23-.21-.18-.39-.38-.55-.6-.05-.07-.1-.15-.15-.22-.06-.09-.12-.19-.16-.28-1.14-2.37-.24-7.51-.24-7.51,0,0,.04-.23.17-.57.07-.21.18-.45.33-.7.17-.29.39-.61.67-.89.57-.6,1.4-1.1,2.59-1.24.07-.01.16-.01.24-.02.16-.01.34-.02.55-.04.63-.04,4.43-.06,8.76-.07-.59.34-1.09.79-1.5,1.25l-.04.06c-.52.61-.87,1.21-1.05,1.55-.17.29-.35.61-.55.9l-.31.49h-.01s-4,.01-4,.01c-.94,0-1.71.76-1.71,1.7v1.76c0,.94.77,1.7,1.71,1.7h12.73l.33,1.39.62,2.68ZM40.73,0c-.87.01-3.11.02-5.84.03.42.23.81.52,1.14.88.25.27.48.59.65.97.1.2.19.42.23.67.06.27.2.89.4,1.77,0,.01,0,.02.01.03,0,.02.01.03.01.05h1.48l1.82-2.77L41.64.02c-.09,0-.43-.01-.91-.02ZM45.02,12.05c-1.14-2.61-4.56-2.64-4.56-2.64h-2.08s.98,4.17.98,4.17h.16c.94,0,1.71.76,1.71,1.7v1.76c0,.77-.52,1.43-1.24,1.63-.15.05-.3.07-.47.07h-6.84l-10.66.05-2.77,4.45s9.74.06,16.6-.04c.19,0,.37-.01.55,0,.01-.01.02-.01.03,0,1.86-.04,3.47-.08,4.56-.16.01.01.02,0,.02,0,.2,0,.39-.02.55-.03.25-.02.46-.04.62-.06,2.83-.42,3.28-3.56,3.28-3.56,0,0,.71-4.72-.43-7.33Z"/>
  <path class="cls-2" d="M24.33,13.51h-.01s-1.57,2.48-1.57,2.48l-.07.13-4.54,7.16h-.66s-5.08-.05-5.08-.05h-.06l6.2-9.75h.05s.04,0,.05.01c.22.02.35.02.35.02h1.32c.83,0,1.99.01,3.36.01h.67ZM38.8,13.57s-.01-.02-.01-.03c-.33-1.41-.65-2.82-.95-4.14-.46-1.97-.86-3.75-1.13-4.98-.01-.01-.01-.02-.01-.03-.18-.8-.3-1.36-.36-1.62-.04-.22-.12-.42-.21-.61-.16-.34-.37-.63-.6-.87-.6-.65-1.39-1.05-2.24-1.24h-.01c-1.52,0-3.14,0-4.71.01h-.01c-.13.03-.24.06-.37.1-.01,0-.02,0-.03.01-.84.29-1.54.88-2.07,1.47l-.04.06c-.47.55-.79,1.09-.95,1.41-.15.27-.31.56-.49.82l-.25.41-.03.04-.02.03-2.9,4.53h5.64c1.01-1.62,1.9-3.02,2.56-3.99.09-.14.22-.27.4-.37h.01c.12-.06.25-.12.41-.15.09-.02.2-.03.31-.03.07,0,.15.01.22.01.19.01.39.07.57.19.39.21.71.61.81,1.03l.87,3.75.03.12.92,4.03v.04s1.22,5.16,1.22,5.16h4.14c.17,0,.33-.02.47-.07-.36-1.51-.79-3.35-1.19-5.09Z"/>
</svg>