<?xml version="1.0" encoding="UTF-8"?>
<svg id="_Слой_1" data-name="Слой 1" xmlns="http://www.w3.org/2000/svg" xmlns:xlink="http://www.w3.org/1999/xlink" viewBox="0 0 80.35 13.92">
  <defs>
    <style>
      .cls-1 {
        fill: url(#_Безымянный_градиент_637);
      }

      .cls-2 {
        fill: url(#_Безымянный_градиент_670);
      }

      .cls-3 {
        fill: #006cd4;
      }
    </style>
    <linearGradient id="_Безымянный_градиент_637" data-name="Безымянный градиент 637" x1=".7" y1="6.96" x2="19.95" y2="6.96" gradientUnits="userSpaceOnUse">
      <stop offset="0" stop-color="#1593ff"/>
      <stop offset="1" stop-color="#006cd4"/>
    </linearGradient>
    <linearGradient id="_Безымянный_градиент_670" data-name="Безымянный градиент 670" x1="0" y1="6.97" x2="16.55" y2="6.97" gradientUnits="userSpaceOnUse">
      <stop offset="0" stop-color="#3ff6ff"/>
      <stop offset="1" stop-color="#15c7ff"/>
    </linearGradient>
  </defs>
  <g>
    <path class="cls-1" d="M12.58,8.11c-1.69,0-3.73-.01-5.41-.01h-.53c-.82,0-1.51,0-2.01,0h-.79s-.05,0-.14,0c-.02,0-.04,0-.06,0,0,0-.02,0-.03,0h-.03c-.16-.01-.37-.04-.61-.1-.19-.04-.39-.11-.6-.19-.09-.04-.19-.08-.28-.13-.01,0-.02-.01-.03-.02-.05-.03-.09-.05-.14-.08-.06-.03-.11-.07-.16-.11-.06-.04-.13-.08-.18-.14-.13-.11-.23-.23-.33-.36-.03-.04-.06-.09-.09-.13-.04-.06-.07-.11-.09-.17-.68-1.42-.14-4.5-.14-4.5,0,0,.03-.14.1-.34.04-.13.11-.27.19-.42.1-.18.23-.36.4-.53.34-.36.84-.66,1.55-.74.04,0,.09,0,.14-.01.09,0,.2-.01.33-.03.38-.03,2.65-.04,5.24-.04-.35.2-.65.47-.9.75l-.03.04c-.31.36-.52.72-.63.93-.1.18-.21.36-.33.54l-.19.3h0s-2.39,0-2.39,0c-.57,0-1.02.45-1.02,1.02v1.05c0,.57.46,1.02,1.02,1.02h7.62l.19.83.37,1.6ZM17,0c-.52,0-1.86.01-3.5.02.25.14.48.31.68.53.15.16.29.35.39.58.06.12.11.25.14.4.04.16.12.53.24,1.06,0,0,0,.01,0,.02,0,.01,0,.02,0,.03h.89l1.09-1.66L17.54.01c-.06,0-.26,0-.55-.01ZM19.56,7.21c-.68-1.56-2.73-1.58-2.73-1.58h-1.24s.58,2.49.58,2.49h.09c.57,0,1.02.45,1.02,1.02v1.05c0,.46-.31.85-.74.97-.09.03-.18.04-.28.04h-4.09l-6.38.03-1.66,2.66s5.83.04,9.93-.03c.11,0,.22,0,.33,0,0,0,.01,0,.02,0,1.11-.03,2.08-.05,2.73-.09,0,0,.01,0,.01,0,.12,0,.23-.01.33-.02.15-.01.28-.03.37-.04,1.7-.25,1.97-2.13,1.97-2.13,0,0,.43-2.83-.26-4.39Z"/>
    <path class="cls-2" d="M7.18,8.08h0s-.94,1.48-.94,1.48l-.04.08-2.72,4.28h-.4s-3.04-.03-3.04-.03h-.04l3.71-5.83h.03s.03,0,.03,0c.13.01.21.01.21.01h.79c.5,0,1.19,0,2.01,0h.4ZM15.84,8.12s0-.01,0-.02c-.19-.84-.39-1.69-.57-2.48-.28-1.18-.51-2.24-.68-2.98,0,0,0-.01,0-.02-.11-.48-.18-.82-.21-.97-.03-.13-.07-.25-.13-.36-.09-.2-.22-.38-.36-.52-.36-.39-.83-.63-1.34-.74h0c-.91,0-1.88,0-2.82,0h0c-.08.02-.14.04-.22.06,0,0-.01,0-.02,0-.5.18-.92.53-1.24.88l-.03.04c-.28.33-.47.65-.57.84-.09.16-.19.33-.3.49l-.15.24-.02.03v.02s-1.75,2.71-1.75,2.71h3.37c.6-.97,1.14-1.81,1.53-2.39.06-.08.13-.16.24-.22h0c.07-.04.15-.07.24-.09.06-.01.12-.02.19-.02.04,0,.09,0,.13,0,.11,0,.23.04.34.11.23.13.43.36.48.62l.52,2.24.02.07.55,2.41v.03s.73,3.09.73,3.09h2.48c.1,0,.19-.01.28-.04-.21-.9-.47-2-.71-3.05Z"/>
  </g>
  <g>
    <path class="cls-3" d="M22.74,4.03c.43-.84,1.02-1.49,1.77-1.94.74-.45,1.58-.68,2.5-.68.8,0,1.51.16,2.11.48.6.32,1.09.73,1.45,1.22v-1.54h2.74v10.77h-2.74v-1.57c-.35.51-.83.92-1.45,1.25-.61.33-1.32.49-2.13.49-.91,0-1.73-.23-2.48-.7-.75-.47-1.34-1.13-1.77-1.97s-.65-1.82-.65-2.92.22-2.05.65-2.89ZM30.17,5.26c-.26-.47-.61-.84-1.05-1.09-.44-.25-.91-.38-1.42-.38s-.97.12-1.4.37c-.43.25-.78.61-1.04,1.08-.27.47-.4,1.03-.4,1.68s.13,1.22.4,1.7c.27.49.62.86,1.05,1.12.43.26.9.39,1.39.39s.98-.13,1.42-.38c.44-.25.79-.61,1.05-1.09.26-.47.39-1.04.39-1.7s-.13-1.23-.39-1.7Z"/>
    <path class="cls-3" d="M45.89,7.78h-7.87c.07.78.34,1.39.82,1.83.48.44,1.07.66,1.77.66,1.01,0,1.73-.43,2.16-1.3h2.93c-.31,1.04-.91,1.89-1.79,2.56-.88.67-1.96,1-3.24,1-1.04,0-1.97-.23-2.79-.69-.82-.46-1.46-1.11-1.92-1.95-.46-.84-.69-1.81-.69-2.92s.23-2.09.68-2.93c.45-.84,1.09-1.49,1.9-1.94s1.75-.68,2.82-.68,1.94.22,2.75.66c.81.44,1.44,1.07,1.89,1.87.45.81.67,1.74.67,2.79,0,.39-.03.74-.08,1.05ZM43.15,5.95c-.01-.7-.27-1.26-.76-1.68-.49-.42-1.09-.63-1.81-.63-.67,0-1.24.2-1.7.61s-.74.98-.84,1.7h5.11Z"/>
    <path class="cls-3" d="M52.44,9.84l2.72-8.26h2.89l-3.98,10.77h-3.3l-3.96-10.77h2.92l2.72,8.26Z"/>
    <path class="cls-3" d="M61.57,11.83c-.83-.46-1.48-1.11-1.95-1.95-.47-.84-.71-1.81-.71-2.92s.24-2.07.73-2.92c.49-.84,1.15-1.49,1.99-1.95.84-.46,1.78-.69,2.82-.69s1.98.23,2.82.69c.84.46,1.51,1.11,1.99,1.95.49.84.73,1.81.73,2.92s-.25,2.07-.75,2.92-1.17,1.49-2.02,1.95c-.85.46-1.8.69-2.85.69s-1.97-.23-2.8-.69ZM65.76,9.79c.43-.24.78-.6,1.04-1.08.26-.48.39-1.06.39-1.75,0-1.02-.27-1.81-.81-2.36s-1.19-.83-1.97-.83-1.43.28-1.95.83-.79,1.34-.79,2.36.25,1.81.77,2.36c.51.55,1.16.83,1.93.83.49,0,.95-.12,1.39-.36Z"/>
    <path class="cls-3" d="M73.74,12.04c-.7-.32-1.25-.75-1.66-1.29-.41-.54-.63-1.15-.67-1.81h2.74c.05.41.26.76.61,1.03.36.27.8.41,1.33.41s.92-.1,1.22-.31c.29-.21.44-.47.44-.8,0-.35-.18-.61-.53-.79-.36-.18-.92-.37-1.7-.57-.8-.19-1.46-.4-1.97-.6-.51-.21-.95-.52-1.32-.95-.37-.43-.55-1-.55-1.73,0-.6.17-1.14.51-1.63.34-.49.84-.88,1.48-1.17.64-.28,1.4-.43,2.27-.43,1.28,0,2.3.32,3.07.96.77.64,1.19,1.51,1.26,2.6h-2.6c-.04-.43-.22-.77-.53-1.02-.32-.25-.74-.38-1.27-.38-.49,0-.87.09-1.14.27s-.4.43-.4.76c0,.36.18.64.54.83.36.19.92.38,1.69.57.78.19,1.42.4,1.92.6.51.21.94.53,1.31.96.37.43.56,1.01.57,1.72,0,.62-.17,1.18-.51,1.67-.34.49-.84.88-1.48,1.16-.64.28-1.39.42-2.25.42s-1.67-.16-2.37-.48Z"/>
  </g>
</svg>